<svg width="239" height="77" viewBox="0 0 239 77" fill="none" xmlns="http://www.w3.org/2000/svg">
<circle cx="71" cy="14" r="13.5" fill="#496752" stroke="#496752"/>
<circle cx="15" cy="14" r="13.5" fill="#496752" stroke="#496752"/>
<circle cx="14" cy="58" r="14" fill="#EFB387"/>
<circle cx="72" cy="58" r="14" fill="#EFB387"/>
<path d="M14.5 18.5C35.7 35.3 61.6667 25.5 72 18.5" stroke="#D9BB9E" stroke-width="4" stroke-linecap="round"/>
<path d="M14 61.5C35.2 78.3 61.1667 68.5 71.5 61.5" stroke="#483623" stroke-width="11" stroke-linecap="round"/>
<path d="M103.391 9.15625V10.5986H104.806C105.143 10.5986 105.382 10.6647 105.523 10.7969C105.669 10.9245 105.742 11.0931 105.742 11.3027C105.742 11.5078 105.669 11.6764 105.523 11.8086C105.382 11.9362 105.143 12 104.806 12H101.771C101.433 12 101.192 11.9362 101.046 11.8086C100.905 11.6764 100.834 11.5055 100.834 11.2959C100.834 11.0908 100.907 10.9245 101.053 10.7969C101.199 10.6647 101.438 10.5986 101.771 10.5986H101.989V5.11621H101.771C101.433 5.11621 101.192 5.05241 101.046 4.9248C100.905 4.79264 100.834 4.62174 100.834 4.41211C100.834 4.20247 100.905 4.03385 101.046 3.90625C101.192 3.77409 101.433 3.70801 101.771 3.70801L104.997 3.71484C105.945 3.71484 106.695 3.97461 107.246 4.49414C107.802 5.00911 108.08 5.63802 108.08 6.38086C108.08 6.79102 107.987 7.17839 107.8 7.54297C107.659 7.81641 107.422 8.08757 107.089 8.35645C106.761 8.62077 106.424 8.82129 106.077 8.95801C105.735 9.09017 105.282 9.15625 104.717 9.15625H103.391ZM103.391 7.75488H104.689C105.3 7.75488 105.783 7.61816 106.139 7.34473C106.499 7.06673 106.679 6.73405 106.679 6.34668C106.679 6.01855 106.533 5.73145 106.241 5.48535C105.954 5.23926 105.542 5.11621 105.004 5.11621H103.391V7.75488ZM115.586 5.79297V10.5986C115.882 10.5986 116.101 10.6647 116.242 10.7969C116.383 10.929 116.454 11.0977 116.454 11.3027C116.454 11.5078 116.381 11.6764 116.235 11.8086C116.094 11.9362 115.855 12 115.518 12H114.185V11.6787C113.784 11.861 113.401 11.9977 113.036 12.0889C112.672 12.18 112.325 12.2256 111.997 12.2256C111.537 12.2256 111.138 12.1299 110.801 11.9385C110.464 11.7425 110.197 11.4736 110.001 11.1318C109.86 10.8857 109.789 10.5781 109.789 10.209V7.19434H109.55C109.213 7.19434 108.971 7.13053 108.825 7.00293C108.684 6.87077 108.613 6.69987 108.613 6.49023C108.613 6.28516 108.684 6.11882 108.825 5.99121C108.971 5.85905 109.213 5.79297 109.55 5.79297H111.19V9.96289C111.19 10.2591 111.261 10.4779 111.402 10.6191C111.548 10.7559 111.769 10.8242 112.065 10.8242C112.348 10.8242 112.651 10.7695 112.975 10.6602C113.303 10.5462 113.706 10.3434 114.185 10.0518V7.19434H113.679C113.341 7.19434 113.1 7.13053 112.954 7.00293C112.813 6.87077 112.742 6.69987 112.742 6.49023C112.742 6.28516 112.813 6.11882 112.954 5.99121C113.1 5.85905 113.341 5.79297 113.679 5.79297H115.586ZM119.599 5.79297V6.26465C119.854 6.0459 120.134 5.88184 120.439 5.77246C120.749 5.66309 121.084 5.6084 121.444 5.6084C122.274 5.6084 122.93 5.86589 123.413 6.38086C123.796 6.79102 123.987 7.32878 123.987 7.99414V10.5986C124.284 10.5986 124.502 10.6647 124.644 10.7969C124.785 10.9245 124.855 11.0931 124.855 11.3027C124.855 11.5078 124.783 11.6764 124.637 11.8086C124.495 11.9362 124.256 12 123.919 12H122.654C122.317 12 122.076 11.9362 121.93 11.8086C121.788 11.6764 121.718 11.5055 121.718 11.2959C121.718 11.0908 121.788 10.9245 121.93 10.7969C122.071 10.6647 122.29 10.5986 122.586 10.5986V7.95312C122.586 7.64779 122.504 7.42448 122.34 7.2832C122.126 7.10091 121.804 7.00977 121.376 7.00977C121.052 7.00977 120.768 7.07357 120.521 7.20117C120.28 7.32422 119.972 7.58854 119.599 7.99414V10.5986C119.959 10.5986 120.191 10.6328 120.296 10.7012C120.519 10.8379 120.631 11.0384 120.631 11.3027C120.631 11.5078 120.558 11.6764 120.412 11.8086C120.271 11.9362 120.032 12 119.694 12H118.102C117.764 12 117.523 11.9362 117.377 11.8086C117.236 11.6764 117.165 11.5055 117.165 11.2959C117.165 11.0407 117.274 10.8424 117.493 10.7012C117.603 10.6328 117.837 10.5986 118.197 10.5986V7.19434C117.901 7.19434 117.682 7.12826 117.541 6.99609C117.4 6.86393 117.329 6.69531 117.329 6.49023C117.329 6.28516 117.4 6.11882 117.541 5.99121C117.687 5.85905 117.928 5.79297 118.266 5.79297H119.599ZM131.609 6.0459C131.778 5.88639 131.951 5.80664 132.129 5.80664C132.329 5.80664 132.493 5.87956 132.621 6.02539C132.753 6.16667 132.819 6.40365 132.819 6.73633V7.63867C132.819 7.97591 132.753 8.21517 132.621 8.35645C132.493 8.49772 132.325 8.56836 132.115 8.56836C131.924 8.56836 131.762 8.51367 131.63 8.4043C131.534 8.32227 131.459 8.15592 131.404 7.90527C131.35 7.65007 131.217 7.46094 131.008 7.33789C130.639 7.11914 130.167 7.00977 129.593 7.00977C128.932 7.00977 128.401 7.20345 128 7.59082C127.604 7.97819 127.405 8.4681 127.405 9.06055C127.405 9.60742 127.597 10.0404 127.979 10.3594C128.362 10.6738 128.998 10.8311 129.887 10.8311C130.47 10.8311 130.946 10.7718 131.315 10.6533C131.534 10.5804 131.742 10.4574 131.938 10.2842C132.133 10.1064 132.311 10.0176 132.471 10.0176C132.662 10.0176 132.826 10.0882 132.963 10.2295C133.104 10.3708 133.175 10.5371 133.175 10.7285C133.175 11.0384 132.963 11.3324 132.539 11.6104C131.91 12.0251 130.99 12.2324 129.777 12.2324C128.688 12.2324 127.84 12.0068 127.234 11.5557C126.414 10.9495 126.004 10.1201 126.004 9.06738C126.004 8.06934 126.337 7.24447 127.002 6.59277C127.667 5.93652 128.535 5.6084 129.606 5.6084C129.994 5.6084 130.354 5.64486 130.687 5.71777C131.019 5.79069 131.327 5.90007 131.609 6.0459ZM136.388 3.13379V6.12109C136.679 5.94792 136.973 5.82031 137.27 5.73828C137.57 5.65169 137.873 5.6084 138.179 5.6084C138.662 5.6084 139.092 5.69043 139.471 5.85449C139.849 6.01855 140.161 6.27832 140.407 6.63379C140.658 6.9847 140.783 7.42904 140.783 7.9668V10.5986C141.139 10.5986 141.371 10.6328 141.48 10.7012C141.699 10.8424 141.809 11.043 141.809 11.3027C141.809 11.5078 141.738 11.6764 141.597 11.8086C141.455 11.9362 141.216 12 140.879 12H139.279C138.947 12 138.707 11.9362 138.562 11.8086C138.42 11.6764 138.35 11.5055 138.35 11.2959C138.35 11.0407 138.459 10.8424 138.678 10.7012C138.792 10.6283 139.024 10.5941 139.375 10.5986V8.0625C139.375 7.70247 139.293 7.44954 139.129 7.30371C138.915 7.10775 138.598 7.00977 138.179 7.00977C137.869 7.00977 137.593 7.07129 137.352 7.19434C137.115 7.31283 136.793 7.57259 136.388 7.97363V10.5986C136.748 10.5986 136.98 10.6328 137.085 10.7012C137.308 10.8424 137.42 11.043 137.42 11.3027C137.42 11.5078 137.347 11.6764 137.201 11.8086C137.06 11.9362 136.821 12 136.483 12H134.891C134.553 12 134.312 11.9362 134.166 11.8086C134.025 11.6764 133.954 11.5055 133.954 11.2959C133.954 11.0407 134.066 10.8424 134.289 10.7012C134.398 10.6283 134.631 10.5941 134.986 10.5986V4.53516H134.747C134.41 4.53516 134.168 4.47135 134.022 4.34375C133.881 4.21159 133.811 4.04069 133.811 3.83105C133.811 3.62598 133.881 3.45964 134.022 3.33203C134.168 3.19987 134.41 3.13379 134.747 3.13379H136.388ZM149.759 9.60742H144.01C144.156 9.97201 144.413 10.266 144.782 10.4893C145.156 10.7126 145.66 10.8242 146.293 10.8242C146.812 10.8242 147.503 10.7126 148.364 10.4893C148.72 10.3981 148.966 10.3525 149.103 10.3525C149.289 10.3525 149.447 10.4186 149.574 10.5508C149.702 10.6829 149.766 10.8493 149.766 11.0498C149.766 11.2321 149.697 11.387 149.561 11.5146C149.378 11.6833 148.934 11.8451 148.228 12C147.521 12.1504 146.842 12.2256 146.19 12.2256C145.069 12.2256 144.172 11.9089 143.497 11.2754C142.827 10.6419 142.492 9.86263 142.492 8.9375C142.492 7.95312 142.854 7.15332 143.579 6.53809C144.308 5.91829 145.147 5.6084 146.095 5.6084C146.664 5.6084 147.186 5.70866 147.66 5.90918C148.139 6.1097 148.494 6.32617 148.727 6.55859C149.055 6.89583 149.326 7.31283 149.54 7.80957C149.686 8.15592 149.759 8.55697 149.759 9.0127V9.60742ZM148.207 8.20605C147.993 7.80501 147.713 7.50651 147.366 7.31055C147.02 7.11003 146.607 7.00977 146.129 7.00977C145.655 7.00977 145.245 7.11003 144.898 7.31055C144.552 7.50651 144.27 7.80501 144.051 8.20605H148.207ZM157.866 3.13379V10.5986H158.105C158.438 10.5986 158.677 10.6647 158.823 10.7969C158.969 10.9245 159.042 11.0931 159.042 11.3027C159.042 11.5078 158.969 11.6764 158.823 11.8086C158.682 11.9362 158.443 12 158.105 12H156.465V11.6582C156.146 11.8451 155.811 11.9863 155.46 12.082C155.114 12.1777 154.754 12.2256 154.38 12.2256C153.327 12.2256 152.479 11.9225 151.837 11.3164C151.194 10.7057 150.873 9.94694 150.873 9.04004C150.873 8.09212 151.21 7.2832 151.885 6.61328C152.559 5.94336 153.382 5.6084 154.353 5.6084C154.717 5.6084 155.075 5.66536 155.426 5.7793C155.777 5.88867 156.123 6.05501 156.465 6.27832V4.53516H156.226C155.888 4.53516 155.647 4.47135 155.501 4.34375C155.36 4.21159 155.289 4.04297 155.289 3.83789C155.289 3.62826 155.36 3.45964 155.501 3.33203C155.647 3.19987 155.888 3.13379 156.226 3.13379H157.866ZM156.465 9.08105C156.465 8.50228 156.262 8.01237 155.856 7.61133C155.451 7.21029 154.954 7.00977 154.366 7.00977C153.783 7.00977 153.288 7.21029 152.883 7.61133C152.477 8.01237 152.274 8.49544 152.274 9.06055C152.274 9.57552 152.457 9.99935 152.821 10.332C153.186 10.6602 153.701 10.8242 154.366 10.8242C155.027 10.8242 155.542 10.6602 155.911 10.332C156.28 9.99935 156.465 9.58236 156.465 9.08105ZM170.021 3.13379V6.12109C170.312 5.94792 170.606 5.82031 170.902 5.73828C171.203 5.65169 171.506 5.6084 171.812 5.6084C172.295 5.6084 172.725 5.69043 173.104 5.85449C173.482 6.01855 173.794 6.27832 174.04 6.63379C174.291 6.9847 174.416 7.42904 174.416 7.9668V10.5986C174.771 10.5986 175.004 10.6328 175.113 10.7012C175.332 10.8424 175.441 11.043 175.441 11.3027C175.441 11.5078 175.371 11.6764 175.229 11.8086C175.088 11.9362 174.849 12 174.512 12H172.912C172.579 12 172.34 11.9362 172.194 11.8086C172.053 11.6764 171.982 11.5055 171.982 11.2959C171.982 11.0407 172.092 10.8424 172.311 10.7012C172.424 10.6283 172.657 10.5941 173.008 10.5986V8.0625C173.008 7.70247 172.926 7.44954 172.762 7.30371C172.548 7.10775 172.231 7.00977 171.812 7.00977C171.502 7.00977 171.226 7.07129 170.984 7.19434C170.747 7.31283 170.426 7.57259 170.021 7.97363V10.5986C170.381 10.5986 170.613 10.6328 170.718 10.7012C170.941 10.8424 171.053 11.043 171.053 11.3027C171.053 11.5078 170.98 11.6764 170.834 11.8086C170.693 11.9362 170.453 12 170.116 12H168.523C168.186 12 167.945 11.9362 167.799 11.8086C167.658 11.6764 167.587 11.5055 167.587 11.2959C167.587 11.0407 167.699 10.8424 167.922 10.7012C168.031 10.6283 168.264 10.5941 168.619 10.5986V4.53516H168.38C168.043 4.53516 167.801 4.47135 167.655 4.34375C167.514 4.21159 167.443 4.04069 167.443 3.83105C167.443 3.62598 167.514 3.45964 167.655 3.33203C167.801 3.19987 168.043 3.13379 168.38 3.13379H170.021ZM183.515 9.0127C183.515 9.55046 183.364 10.0723 183.063 10.5781C182.767 11.0794 182.323 11.4805 181.73 11.7812C181.143 12.0775 180.527 12.2256 179.885 12.2256C179.247 12.2256 178.636 12.0798 178.053 11.7881C177.469 11.4919 177.025 11.0908 176.72 10.585C176.414 10.0791 176.262 9.55046 176.262 8.99902C176.262 8.43848 176.417 7.88932 176.727 7.35156C177.036 6.80924 177.481 6.38314 178.06 6.07324C178.643 5.76335 179.251 5.6084 179.885 5.6084C180.523 5.6084 181.136 5.7679 181.724 6.08691C182.316 6.40137 182.763 6.82747 183.063 7.36523C183.364 7.89844 183.515 8.44759 183.515 9.0127ZM182.113 9.01953C182.113 8.56836 181.951 8.15365 181.628 7.77539C181.186 7.26497 180.605 7.00977 179.885 7.00977C179.251 7.00977 178.723 7.21257 178.299 7.61816C177.875 8.02376 177.663 8.49316 177.663 9.02637C177.663 9.46387 177.877 9.87402 178.306 10.2568C178.734 10.6351 179.26 10.8242 179.885 10.8242C180.514 10.8242 181.042 10.6351 181.471 10.2568C181.899 9.87402 182.113 9.46159 182.113 9.01953ZM188.983 3.13379V10.5986H190.665C191.002 10.5986 191.242 10.6647 191.383 10.7969C191.529 10.9245 191.602 11.0931 191.602 11.3027C191.602 11.5078 191.529 11.6764 191.383 11.8086C191.242 11.9362 191.002 12 190.665 12H185.9C185.563 12 185.322 11.9362 185.176 11.8086C185.035 11.6764 184.964 11.5055 184.964 11.2959C184.964 11.0908 185.035 10.9245 185.176 10.7969C185.322 10.6647 185.563 10.5986 185.9 10.5986H187.582V4.53516H186.454C186.121 4.53516 185.882 4.47135 185.736 4.34375C185.59 4.21159 185.518 4.04069 185.518 3.83105C185.518 3.62598 185.588 3.45964 185.729 3.33203C185.875 3.19987 186.117 3.13379 186.454 3.13379H188.983ZM200.208 9.60742H194.459C194.605 9.97201 194.862 10.266 195.231 10.4893C195.605 10.7126 196.109 10.8242 196.742 10.8242C197.262 10.8242 197.952 10.7126 198.813 10.4893C199.169 10.3981 199.415 10.3525 199.552 10.3525C199.739 10.3525 199.896 10.4186 200.023 10.5508C200.151 10.6829 200.215 10.8493 200.215 11.0498C200.215 11.2321 200.146 11.387 200.01 11.5146C199.827 11.6833 199.383 11.8451 198.677 12C197.97 12.1504 197.291 12.2256 196.64 12.2256C195.519 12.2256 194.621 11.9089 193.946 11.2754C193.276 10.6419 192.941 9.86263 192.941 8.9375C192.941 7.95312 193.304 7.15332 194.028 6.53809C194.757 5.91829 195.596 5.6084 196.544 5.6084C197.114 5.6084 197.635 5.70866 198.109 5.90918C198.588 6.1097 198.943 6.32617 199.176 6.55859C199.504 6.89583 199.775 7.31283 199.989 7.80957C200.135 8.15592 200.208 8.55697 200.208 9.0127V9.60742ZM198.656 8.20605C198.442 7.80501 198.162 7.50651 197.815 7.31055C197.469 7.11003 197.057 7.00977 196.578 7.00977C196.104 7.00977 195.694 7.11003 195.348 7.31055C195.001 7.50651 194.719 7.80501 194.5 8.20605H198.656ZM107.335 23.249H101.073C100.937 23.249 100.839 23.2217 100.779 23.167C100.72 23.1123 100.69 23.0417 100.69 22.9551C100.69 22.873 100.72 22.8047 100.779 22.75C100.839 22.6953 100.937 22.668 101.073 22.668H107.335C107.472 22.668 107.57 22.6953 107.629 22.75C107.688 22.8047 107.718 22.8753 107.718 22.9619C107.718 23.0439 107.688 23.1123 107.629 23.167C107.57 23.2217 107.472 23.249 107.335 23.249ZM107.335 25.3066H101.073C100.937 25.3066 100.839 25.2816 100.779 25.2314C100.72 25.1768 100.69 25.1061 100.69 25.0195C100.69 24.9329 100.72 24.8646 100.779 24.8145C100.839 24.7598 100.937 24.7324 101.073 24.7324H107.335C107.472 24.7324 107.57 24.7598 107.629 24.8145C107.688 24.8646 107.718 24.9329 107.718 25.0195C107.718 25.1061 107.688 25.1768 107.629 25.2314C107.57 25.2816 107.472 25.3066 107.335 25.3066ZM116.14 24.0146L109.933 27.4736C109.832 27.5283 109.757 27.5557 109.707 27.5557C109.63 27.5557 109.561 27.5283 109.502 27.4736C109.447 27.4144 109.42 27.346 109.42 27.2686C109.42 27.1546 109.497 27.0544 109.652 26.9678L114.971 24.0146L109.659 21.0615C109.504 20.9749 109.427 20.8747 109.427 20.7607C109.427 20.6833 109.454 20.6172 109.509 20.5625C109.568 20.5033 109.636 20.4736 109.714 20.4736C109.764 20.4736 109.839 20.501 109.939 20.5557L116.14 24.0146ZM131.479 20.5762V20.3848C131.479 20.248 131.505 20.1501 131.555 20.0908C131.609 20.0316 131.68 20.002 131.767 20.002C131.853 20.002 131.922 20.0316 131.972 20.0908C132.026 20.1501 132.054 20.248 132.054 20.3848V21.8477C132.054 21.9844 132.026 22.0824 131.972 22.1416C131.922 22.2008 131.853 22.2305 131.767 22.2305C131.685 22.2305 131.616 22.2031 131.562 22.1484C131.511 22.0938 131.484 22.0049 131.479 21.8818C131.457 21.499 131.258 21.1549 130.885 20.8496C130.516 20.5443 130.03 20.3916 129.429 20.3916C128.795 20.3916 128.292 20.5557 127.918 20.8838C127.544 21.2074 127.357 21.5902 127.357 22.0322C127.357 22.2601 127.41 22.4674 127.515 22.6543C127.619 22.8411 127.758 22.9938 127.932 23.1123C128.105 23.2262 128.301 23.3197 128.52 23.3926C128.738 23.4609 129.08 23.5339 129.545 23.6113C130.324 23.7389 130.862 23.8688 131.158 24.001C131.555 24.1787 131.853 24.4248 132.054 24.7393C132.259 25.0537 132.361 25.4251 132.361 25.8535C132.361 26.5098 132.099 27.0703 131.575 27.5352C131.051 27.9954 130.345 28.2256 129.456 28.2256C128.458 28.2256 127.66 27.9134 127.063 27.2891V27.6172C127.063 27.7539 127.036 27.8519 126.981 27.9111C126.931 27.9704 126.863 28 126.776 28C126.694 28 126.626 27.9704 126.571 27.9111C126.517 27.8519 126.489 27.7539 126.489 27.6172V26.0312C126.489 25.89 126.514 25.7897 126.564 25.7305C126.619 25.6712 126.69 25.6416 126.776 25.6416C126.858 25.6416 126.924 25.6689 126.975 25.7236C127.029 25.7783 127.059 25.8672 127.063 25.9902C127.086 26.4095 127.31 26.7923 127.733 27.1387C128.162 27.4805 128.736 27.6514 129.456 27.6514C130.176 27.6514 130.743 27.4714 131.158 27.1113C131.577 26.7513 131.787 26.3252 131.787 25.833C131.787 25.5322 131.707 25.2656 131.548 25.0332C131.388 24.7962 131.151 24.6094 130.837 24.4727C130.618 24.377 130.162 24.2699 129.47 24.1514C128.517 23.9919 127.831 23.748 127.412 23.4199C126.993 23.0918 126.783 22.6247 126.783 22.0186C126.783 21.417 127.022 20.8997 127.501 20.4668C127.984 20.0339 128.62 19.8174 129.408 19.8174C130.21 19.8174 130.901 20.0703 131.479 20.5762ZM140.94 25.1768H135.089C135.189 25.9196 135.499 26.5189 136.019 26.9746C136.543 27.4258 137.19 27.6514 137.96 27.6514C138.388 27.6514 138.837 27.5807 139.307 27.4395C139.776 27.2982 140.159 27.1113 140.455 26.8789C140.542 26.8105 140.617 26.7764 140.681 26.7764C140.754 26.7764 140.817 26.806 140.872 26.8652C140.927 26.9199 140.954 26.986 140.954 27.0635C140.954 27.141 140.918 27.2161 140.845 27.2891C140.626 27.5169 140.236 27.7311 139.676 27.9316C139.12 28.1276 138.548 28.2256 137.96 28.2256C136.976 28.2256 136.153 27.9043 135.492 27.2617C134.836 26.6146 134.508 25.833 134.508 24.917C134.508 24.083 134.815 23.3675 135.431 22.7705C136.05 22.1735 136.816 21.875 137.728 21.875C138.666 21.875 139.439 22.1826 140.045 22.7979C140.651 23.4085 140.95 24.2015 140.94 25.1768ZM140.359 24.5957C140.245 23.9622 139.945 23.4473 139.457 23.0508C138.974 22.6543 138.397 22.4561 137.728 22.4561C137.058 22.4561 136.481 22.652 135.998 23.0439C135.515 23.4359 135.214 23.9531 135.096 24.5957H140.359ZM148.221 28L147.51 28.0068L146.245 24.3154L144.987 28.0068L144.276 28L143.087 22.6611H142.807C142.67 22.6611 142.572 22.6338 142.513 22.5791C142.453 22.5244 142.424 22.4538 142.424 22.3672C142.424 22.2852 142.453 22.2168 142.513 22.1621C142.572 22.1074 142.67 22.0801 142.807 22.0801H144.386C144.522 22.0801 144.62 22.1074 144.68 22.1621C144.739 22.2168 144.769 22.2874 144.769 22.374C144.769 22.4561 144.739 22.5244 144.68 22.5791C144.62 22.6338 144.522 22.6611 144.386 22.6611H143.654L144.673 27.2139L145.896 23.5771H146.58L147.838 27.2139L148.815 22.6611H148.091C147.954 22.6611 147.854 22.6338 147.79 22.5791C147.731 22.5244 147.701 22.4538 147.701 22.3672C147.701 22.2852 147.731 22.2168 147.79 22.1621C147.849 22.1074 147.95 22.0801 148.091 22.0801H149.663C149.804 22.0801 149.905 22.1074 149.964 22.1621C150.023 22.2168 150.053 22.2874 150.053 22.374C150.053 22.4561 150.023 22.5244 149.964 22.5791C149.905 22.6338 149.804 22.6611 149.663 22.6611H149.39L148.221 28ZM154.934 19.1338V20.6172H154.086V19.1338H154.934ZM154.954 22.0801V27.4258H157.21C157.351 27.4258 157.451 27.4531 157.511 27.5078C157.57 27.5579 157.6 27.6263 157.6 27.7129C157.6 27.7949 157.57 27.8633 157.511 27.918C157.451 27.9727 157.351 28 157.21 28H152.124C151.987 28 151.889 27.9727 151.83 27.918C151.771 27.8633 151.741 27.7949 151.741 27.7129C151.741 27.6263 151.771 27.5579 151.83 27.5078C151.889 27.4531 151.987 27.4258 152.124 27.4258H154.38V22.6611H152.705C152.568 22.6611 152.468 22.6338 152.404 22.5791C152.345 22.5244 152.315 22.4561 152.315 22.374C152.315 22.2874 152.345 22.2168 152.404 22.1621C152.464 22.1074 152.564 22.0801 152.705 22.0801H154.954ZM161.202 22.0801V22.9482C161.603 22.5426 161.965 22.2624 162.289 22.1074C162.613 21.9525 162.977 21.875 163.383 21.875C163.82 21.875 164.219 21.9684 164.579 22.1553C164.834 22.292 165.064 22.5199 165.27 22.8389C165.479 23.1533 165.584 23.4769 165.584 23.8096V27.4258H166.069C166.206 27.4258 166.304 27.4531 166.363 27.5078C166.423 27.5579 166.452 27.6263 166.452 27.7129C166.452 27.7949 166.423 27.8633 166.363 27.918C166.304 27.9727 166.206 28 166.069 28H164.531C164.39 28 164.29 27.9727 164.23 27.918C164.171 27.8633 164.142 27.7949 164.142 27.7129C164.142 27.6263 164.171 27.5579 164.23 27.5078C164.29 27.4531 164.39 27.4258 164.531 27.4258H165.01V23.9053C165.01 23.4997 164.862 23.1579 164.565 22.8799C164.269 22.5973 163.873 22.4561 163.376 22.4561C162.998 22.4561 162.67 22.5335 162.392 22.6885C162.114 22.8389 161.717 23.2171 161.202 23.8232V27.4258H161.852C161.988 27.4258 162.086 27.4531 162.146 27.5078C162.205 27.5579 162.234 27.6263 162.234 27.7129C162.234 27.7949 162.205 27.8633 162.146 27.918C162.086 27.9727 161.988 28 161.852 28H159.979C159.842 28 159.744 27.9727 159.685 27.918C159.625 27.8633 159.596 27.7949 159.596 27.7129C159.596 27.6263 159.625 27.5579 159.685 27.5078C159.744 27.4531 159.842 27.4258 159.979 27.4258H160.628V22.6611H160.143C160.006 22.6611 159.908 22.6338 159.849 22.5791C159.789 22.5244 159.76 22.4538 159.76 22.3672C159.76 22.2852 159.789 22.2168 159.849 22.1621C159.908 22.1074 160.006 22.0801 160.143 22.0801H161.202ZM173.397 23.1328V22.0801H174.744C174.881 22.0801 174.979 22.1074 175.038 22.1621C175.097 22.2168 175.127 22.2874 175.127 22.374C175.127 22.4561 175.097 22.5244 175.038 22.5791C174.979 22.6338 174.881 22.6611 174.744 22.6611H173.972V28.3965C173.972 28.7793 173.89 29.1211 173.726 29.4219C173.616 29.6224 173.434 29.8298 173.179 30.0439C172.924 30.2581 172.691 30.4108 172.481 30.502C172.272 30.5931 171.992 30.6387 171.641 30.6387H170.014C169.877 30.6387 169.779 30.6113 169.72 30.5566C169.66 30.5065 169.631 30.4382 169.631 30.3516C169.631 30.265 169.66 30.1943 169.72 30.1396C169.779 30.085 169.877 30.0576 170.014 30.0576L171.661 30.0645C171.998 30.0645 172.301 29.9779 172.57 29.8047C172.844 29.6315 173.069 29.3786 173.247 29.0459C173.347 28.8545 173.397 28.6107 173.397 28.3145V26.5918C172.782 27.4349 171.989 27.8564 171.019 27.8564C170.23 27.8564 169.549 27.5648 168.975 26.9814C168.405 26.3936 168.12 25.6872 168.12 24.8623C168.12 24.0374 168.405 23.3333 168.975 22.75C169.549 22.1667 170.23 21.875 171.019 21.875C171.989 21.875 172.782 22.2943 173.397 23.1328ZM173.397 24.8623C173.397 24.1878 173.165 23.6182 172.7 23.1533C172.24 22.6885 171.688 22.4561 171.046 22.4561C170.403 22.4561 169.852 22.6908 169.392 23.1602C168.931 23.625 168.701 24.1924 168.701 24.8623C168.701 25.5368 168.931 26.1087 169.392 26.5781C169.852 27.043 170.403 27.2754 171.046 27.2754C171.688 27.2754 172.24 27.043 172.7 26.5781C173.165 26.1087 173.397 25.5368 173.397 24.8623ZM187.104 22.0801H190.221C190.357 22.0801 190.455 22.1074 190.515 22.1621C190.574 22.2168 190.604 22.2874 190.604 22.374C190.604 22.4561 190.574 22.5244 190.515 22.5791C190.455 22.6338 190.357 22.6611 190.221 22.6611H187.104V26.4824C187.104 26.8151 187.236 27.0931 187.5 27.3164C187.769 27.5397 188.161 27.6514 188.676 27.6514C189.063 27.6514 189.482 27.5944 189.934 27.4805C190.385 27.362 190.736 27.2298 190.986 27.084C191.077 27.0247 191.153 26.9951 191.212 26.9951C191.285 26.9951 191.349 27.0247 191.403 27.084C191.458 27.1387 191.485 27.2048 191.485 27.2822C191.485 27.3506 191.456 27.4144 191.396 27.4736C191.251 27.624 190.895 27.7881 190.33 27.9658C189.77 28.139 189.232 28.2256 188.717 28.2256C188.047 28.2256 187.514 28.0684 187.117 27.7539C186.721 27.4395 186.522 27.0156 186.522 26.4824V22.6611H185.463C185.326 22.6611 185.228 22.6338 185.169 22.5791C185.11 22.5244 185.08 22.4538 185.08 22.3672C185.08 22.2852 185.11 22.2168 185.169 22.1621C185.228 22.1074 185.326 22.0801 185.463 22.0801H186.522V20.3848C186.522 20.248 186.55 20.1501 186.604 20.0908C186.659 20.0316 186.728 20.002 186.81 20.002C186.896 20.002 186.967 20.0316 187.021 20.0908C187.076 20.1501 187.104 20.248 187.104 20.3848V22.0801ZM194.801 19.4209V22.9551C195.165 22.5586 195.514 22.2806 195.847 22.1211C196.184 21.957 196.56 21.875 196.975 21.875C197.421 21.875 197.799 21.9548 198.109 22.1143C198.424 22.2692 198.686 22.5107 198.896 22.8389C199.105 23.1624 199.21 23.5042 199.21 23.8643V27.4258H199.853C199.994 27.4258 200.092 27.4531 200.146 27.5078C200.206 27.5579 200.235 27.6263 200.235 27.7129C200.235 27.7949 200.206 27.8633 200.146 27.918C200.092 27.9727 199.994 28 199.853 28H197.986C197.845 28 197.745 27.9727 197.686 27.918C197.626 27.8633 197.597 27.7949 197.597 27.7129C197.597 27.6263 197.626 27.5579 197.686 27.5078C197.745 27.4531 197.845 27.4258 197.986 27.4258H198.629V23.9053C198.629 23.4906 198.479 23.1442 198.178 22.8662C197.882 22.5882 197.467 22.4492 196.934 22.4492C196.514 22.4492 196.157 22.5518 195.86 22.7568C195.646 22.9027 195.293 23.2467 194.801 23.7891V27.4258H195.45C195.587 27.4258 195.685 27.4531 195.744 27.5078C195.803 27.5579 195.833 27.6263 195.833 27.7129C195.833 27.7949 195.803 27.8633 195.744 27.918C195.685 27.9727 195.587 28 195.45 28H193.577C193.44 28 193.342 27.9727 193.283 27.918C193.224 27.8633 193.194 27.7949 193.194 27.7129C193.194 27.6263 193.224 27.5579 193.283 27.5078C193.342 27.4531 193.44 27.4258 193.577 27.4258H194.227V20.002H193.454C193.317 20.002 193.219 19.9746 193.16 19.9199C193.101 19.8652 193.071 19.7946 193.071 19.708C193.071 19.626 193.101 19.5576 193.16 19.5029C193.219 19.4482 193.317 19.4209 193.454 19.4209H194.801ZM204.412 22.0801V23.5293C205.16 22.8548 205.718 22.4219 206.087 22.2305C206.461 22.0345 206.805 21.9365 207.119 21.9365C207.461 21.9365 207.778 22.0527 208.069 22.2852C208.366 22.513 208.514 22.6862 208.514 22.8047C208.514 22.8913 208.484 22.9642 208.425 23.0234C208.37 23.0781 208.299 23.1055 208.213 23.1055C208.167 23.1055 208.129 23.0986 208.097 23.085C208.065 23.0667 208.006 23.0143 207.919 22.9277C207.759 22.7682 207.62 22.6589 207.502 22.5996C207.383 22.5404 207.267 22.5107 207.153 22.5107C206.903 22.5107 206.6 22.611 206.244 22.8115C205.893 23.012 205.283 23.502 204.412 24.2812V27.4258H206.955C207.096 27.4258 207.197 27.4531 207.256 27.5078C207.315 27.5579 207.345 27.6263 207.345 27.7129C207.345 27.7949 207.315 27.8633 207.256 27.918C207.197 27.9727 207.096 28 206.955 28H202.45C202.313 28 202.215 27.9749 202.156 27.9248C202.097 27.8701 202.067 27.8018 202.067 27.7197C202.067 27.6423 202.095 27.5785 202.149 27.5283C202.209 27.4736 202.309 27.4463 202.45 27.4463H203.838V22.6611H202.778C202.642 22.6611 202.544 22.6338 202.484 22.5791C202.425 22.5244 202.396 22.4538 202.396 22.3672C202.396 22.2852 202.423 22.2168 202.478 22.1621C202.537 22.1074 202.637 22.0801 202.778 22.0801H204.412ZM216.614 25.1768H210.763C210.863 25.9196 211.173 26.5189 211.692 26.9746C212.216 27.4258 212.864 27.6514 213.634 27.6514C214.062 27.6514 214.511 27.5807 214.98 27.4395C215.45 27.2982 215.833 27.1113 216.129 26.8789C216.215 26.8105 216.291 26.7764 216.354 26.7764C216.427 26.7764 216.491 26.806 216.546 26.8652C216.601 26.9199 216.628 26.986 216.628 27.0635C216.628 27.141 216.591 27.2161 216.519 27.2891C216.3 27.5169 215.91 27.7311 215.35 27.9316C214.794 28.1276 214.222 28.2256 213.634 28.2256C212.649 28.2256 211.827 27.9043 211.166 27.2617C210.51 26.6146 210.182 25.833 210.182 24.917C210.182 24.083 210.489 23.3675 211.104 22.7705C211.724 22.1735 212.49 21.875 213.401 21.875C214.34 21.875 215.113 22.1826 215.719 22.7979C216.325 23.4085 216.623 24.2015 216.614 25.1768ZM216.033 24.5957C215.919 23.9622 215.618 23.4473 215.131 23.0508C214.648 22.6543 214.071 22.4561 213.401 22.4561C212.731 22.4561 212.155 22.652 211.672 23.0439C211.189 23.4359 210.888 23.9531 210.77 24.5957H216.033ZM223.566 28V27.1729C222.732 27.8747 221.841 28.2256 220.894 28.2256C220.205 28.2256 219.668 28.0524 219.28 27.7061C218.893 27.3551 218.699 26.9268 218.699 26.4209C218.699 25.8649 218.954 25.3796 219.465 24.9648C219.975 24.5501 220.72 24.3428 221.7 24.3428C221.965 24.3428 222.252 24.361 222.562 24.3975C222.871 24.4294 223.206 24.4818 223.566 24.5547V23.625C223.566 23.3105 223.421 23.0371 223.129 22.8047C222.837 22.5723 222.4 22.4561 221.816 22.4561C221.37 22.4561 220.743 22.5859 219.937 22.8457C219.791 22.8913 219.697 22.9141 219.656 22.9141C219.583 22.9141 219.52 22.8867 219.465 22.832C219.415 22.7773 219.39 22.709 219.39 22.627C219.39 22.5495 219.412 22.488 219.458 22.4424C219.522 22.374 219.779 22.2806 220.23 22.1621C220.941 21.9707 221.479 21.875 221.844 21.875C222.568 21.875 223.133 22.055 223.539 22.415C223.945 22.7705 224.147 23.1738 224.147 23.625V27.4258H224.913C225.054 27.4258 225.155 27.4531 225.214 27.5078C225.273 27.5579 225.303 27.6263 225.303 27.7129C225.303 27.7949 225.273 27.8633 225.214 27.918C225.155 27.9727 225.054 28 224.913 28H223.566ZM223.566 25.1426C223.298 25.0651 223.013 25.0081 222.712 24.9717C222.411 24.9352 222.094 24.917 221.762 24.917C220.928 24.917 220.276 25.097 219.807 25.457C219.451 25.7259 219.273 26.0472 219.273 26.4209C219.273 26.7673 219.408 27.0589 219.677 27.2959C219.95 27.5329 220.347 27.6514 220.866 27.6514C221.363 27.6514 221.823 27.5534 222.247 27.3574C222.675 27.1569 223.115 26.8402 223.566 26.4072V25.1426ZM233.137 19.4209V27.4258H233.902C234.044 27.4258 234.144 27.4531 234.203 27.5078C234.262 27.5579 234.292 27.6263 234.292 27.7129C234.292 27.7949 234.262 27.8633 234.203 27.918C234.144 27.9727 234.044 28 233.902 28H232.556V26.8584C231.89 27.7699 231.045 28.2256 230.02 28.2256C229.5 28.2256 229.001 28.0889 228.522 27.8154C228.049 27.5374 227.673 27.1432 227.395 26.6328C227.121 26.1224 226.984 25.596 226.984 25.0537C226.984 24.5068 227.121 23.9805 227.395 23.4746C227.673 22.9642 228.049 22.57 228.522 22.292C229.001 22.014 229.502 21.875 230.026 21.875C231.029 21.875 231.872 22.3307 232.556 23.2422V20.002H231.79C231.649 20.002 231.549 19.9746 231.489 19.9199C231.43 19.8652 231.4 19.7946 231.4 19.708C231.4 19.626 231.43 19.5576 231.489 19.5029C231.549 19.4482 231.649 19.4209 231.79 19.4209H233.137ZM232.556 25.0537C232.556 24.3245 232.31 23.7093 231.817 23.208C231.325 22.7067 230.74 22.4561 230.061 22.4561C229.377 22.4561 228.789 22.7067 228.297 23.208C227.805 23.7093 227.559 24.3245 227.559 25.0537C227.559 25.7783 227.805 26.3936 228.297 26.8994C228.789 27.4007 229.377 27.6514 230.061 27.6514C230.74 27.6514 231.325 27.4007 231.817 26.8994C232.31 26.3936 232.556 25.7783 232.556 25.0537Z" fill="black"/>
<path d="M101.34 54.5986V49.1162H101.121C100.784 49.1162 100.542 49.0524 100.396 48.9248C100.255 48.7926 100.185 48.6217 100.185 48.4121C100.185 48.2025 100.255 48.0339 100.396 47.9062C100.542 47.7741 100.784 47.708 101.121 47.708H104.635C105.473 47.708 106.148 47.9427 106.658 48.4121C107.169 48.877 107.424 49.4307 107.424 50.0732C107.424 50.3786 107.365 50.6657 107.246 50.9346C107.128 51.2035 106.948 51.4518 106.706 51.6797C107.148 51.944 107.479 52.2539 107.697 52.6094C107.921 52.9603 108.032 53.359 108.032 53.8057C108.032 54.1611 107.952 54.4915 107.793 54.7969C107.674 55.0293 107.529 55.2139 107.355 55.3506C107.123 55.542 106.838 55.6992 106.501 55.8223C106.164 55.9408 105.742 56 105.236 56H101.121C100.784 56 100.542 55.9362 100.396 55.8086C100.255 55.6764 100.185 55.5055 100.185 55.2959C100.185 55.0908 100.257 54.9245 100.403 54.7969C100.549 54.6647 100.788 54.5986 101.121 54.5986H101.34ZM102.741 51.1533H104.279C104.831 51.1533 105.289 51.0143 105.653 50.7363C105.899 50.5495 106.022 50.3171 106.022 50.0391C106.022 49.793 105.906 49.5788 105.674 49.3965C105.441 49.2096 105.072 49.1162 104.566 49.1162H102.741V51.1533ZM102.741 54.5986H105.161C105.731 54.5986 106.132 54.5143 106.364 54.3457C106.542 54.2181 106.631 54.0358 106.631 53.7988C106.631 53.5163 106.455 53.2383 106.104 52.9648C105.754 52.6914 105.25 52.5547 104.594 52.5547H102.741V54.5986ZM113.31 47.1338V54.5986H114.991C115.328 54.5986 115.568 54.6647 115.709 54.7969C115.855 54.9245 115.928 55.0931 115.928 55.3027C115.928 55.5078 115.855 55.6764 115.709 55.8086C115.568 55.9362 115.328 56 114.991 56H110.227C109.889 56 109.648 55.9362 109.502 55.8086C109.361 55.6764 109.29 55.5055 109.29 55.2959C109.29 55.0908 109.361 54.9245 109.502 54.7969C109.648 54.6647 109.889 54.5986 110.227 54.5986H111.908V48.5352H110.78C110.448 48.5352 110.208 48.4714 110.062 48.3438C109.917 48.2116 109.844 48.0407 109.844 47.8311C109.844 47.626 109.914 47.4596 110.056 47.332C110.201 47.1999 110.443 47.1338 110.78 47.1338H113.31ZM122.278 56V55.6719C121.927 55.8587 121.54 55.9977 121.116 56.0889C120.692 56.1846 120.307 56.2324 119.961 56.2324C119.209 56.2324 118.598 56.0342 118.129 55.6377C117.66 55.2367 117.425 54.7946 117.425 54.3115C117.425 53.7236 117.723 53.179 118.32 52.6777C118.922 52.1719 119.751 51.9189 120.809 51.9189C121.232 51.9189 121.722 51.9645 122.278 52.0557V51.7207C122.278 51.5111 122.187 51.3402 122.005 51.208C121.827 51.0758 121.485 51.0098 120.979 51.0098C120.565 51.0098 120.027 51.0918 119.366 51.2559C119.12 51.3151 118.929 51.3447 118.792 51.3447C118.605 51.3447 118.446 51.2786 118.313 51.1465C118.186 51.0098 118.122 50.8366 118.122 50.627C118.122 50.5085 118.145 50.4059 118.19 50.3193C118.236 50.2327 118.3 50.1644 118.382 50.1143C118.464 50.0596 118.635 49.9958 118.895 49.9229C119.241 49.8271 119.594 49.752 119.954 49.6973C120.314 49.638 120.64 49.6084 120.932 49.6084C121.802 49.6084 122.477 49.7975 122.955 50.1758C123.438 50.5495 123.68 51.0622 123.68 51.7139V54.5986H123.919C124.256 54.5986 124.495 54.6647 124.637 54.7969C124.783 54.9245 124.855 55.0931 124.855 55.3027C124.855 55.5078 124.783 55.6764 124.637 55.8086C124.495 55.9362 124.256 56 123.919 56H122.278ZM122.278 53.4912C121.718 53.3818 121.201 53.3271 120.727 53.3271C120.157 53.3271 119.667 53.4661 119.257 53.7441C119.002 53.9219 118.874 54.1019 118.874 54.2842C118.874 54.4163 118.936 54.5234 119.059 54.6055C119.286 54.7559 119.599 54.8311 119.995 54.8311C120.332 54.8311 120.713 54.765 121.137 54.6328C121.565 54.5007 121.946 54.3206 122.278 54.0928V53.4912ZM128.007 49.793V50.2646C128.262 50.0459 128.542 49.8818 128.848 49.7725C129.158 49.6631 129.493 49.6084 129.853 49.6084C130.682 49.6084 131.338 49.8659 131.821 50.3809C132.204 50.791 132.396 51.3288 132.396 51.9941V54.5986C132.692 54.5986 132.91 54.6647 133.052 54.7969C133.193 54.9245 133.264 55.0931 133.264 55.3027C133.264 55.5078 133.191 55.6764 133.045 55.8086C132.904 55.9362 132.664 56 132.327 56H131.062C130.725 56 130.484 55.9362 130.338 55.8086C130.197 55.6764 130.126 55.5055 130.126 55.2959C130.126 55.0908 130.197 54.9245 130.338 54.7969C130.479 54.6647 130.698 54.5986 130.994 54.5986V51.9531C130.994 51.6478 130.912 51.4245 130.748 51.2832C130.534 51.1009 130.213 51.0098 129.784 51.0098C129.461 51.0098 129.176 51.0736 128.93 51.2012C128.688 51.3242 128.381 51.5885 128.007 51.9941V54.5986C128.367 54.5986 128.599 54.6328 128.704 54.7012C128.927 54.8379 129.039 55.0384 129.039 55.3027C129.039 55.5078 128.966 55.6764 128.82 55.8086C128.679 55.9362 128.44 56 128.103 56H126.51C126.173 56 125.931 55.9362 125.785 55.8086C125.644 55.6764 125.573 55.5055 125.573 55.2959C125.573 55.0407 125.683 54.8424 125.901 54.7012C126.011 54.6328 126.245 54.5986 126.605 54.5986V51.1943C126.309 51.1943 126.09 51.1283 125.949 50.9961C125.808 50.8639 125.737 50.6953 125.737 50.4902C125.737 50.2852 125.808 50.1188 125.949 49.9912C126.095 49.859 126.337 49.793 126.674 49.793H128.007ZM136.682 53.6689V56H135.041C134.704 56 134.462 55.9362 134.316 55.8086C134.175 55.6764 134.104 55.5055 134.104 55.2959C134.104 55.0908 134.177 54.9245 134.323 54.7969C134.469 54.6647 134.708 54.5986 135.041 54.5986H135.28V48.5352H135.041C134.704 48.5352 134.462 48.4714 134.316 48.3438C134.175 48.2116 134.104 48.0407 134.104 47.8311C134.104 47.626 134.175 47.4596 134.316 47.332C134.462 47.1999 134.704 47.1338 135.041 47.1338H136.682V51.8574L137.775 50.9756C137.661 50.7796 137.604 50.6201 137.604 50.4971C137.604 50.2874 137.675 50.1188 137.816 49.9912C137.958 49.859 138.197 49.793 138.534 49.793H140.134C140.471 49.793 140.71 49.859 140.852 49.9912C140.997 50.1188 141.07 50.2874 141.07 50.4971C141.07 50.7021 140.997 50.8708 140.852 51.0029C140.71 51.1305 140.471 51.1943 140.134 51.1943H139.744L138.042 52.5752L140.332 54.5986H140.742C141.079 54.5986 141.319 54.6647 141.46 54.7969C141.606 54.9245 141.679 55.0931 141.679 55.3027C141.679 55.5078 141.606 55.6764 141.46 55.8086C141.319 55.9362 141.079 56 140.742 56H139.129C138.792 56 138.55 55.9362 138.404 55.8086C138.263 55.6764 138.192 55.5055 138.192 55.2959C138.192 55.1182 138.27 54.9427 138.425 54.7695L136.941 53.457L136.682 53.6689ZM107.335 67.249H101.073C100.937 67.249 100.839 67.2217 100.779 67.167C100.72 67.1123 100.69 67.0417 100.69 66.9551C100.69 66.873 100.72 66.8047 100.779 66.75C100.839 66.6953 100.937 66.668 101.073 66.668H107.335C107.472 66.668 107.57 66.6953 107.629 66.75C107.688 66.8047 107.718 66.8753 107.718 66.9619C107.718 67.0439 107.688 67.1123 107.629 67.167C107.57 67.2217 107.472 67.249 107.335 67.249ZM107.335 69.3066H101.073C100.937 69.3066 100.839 69.2816 100.779 69.2314C100.72 69.1768 100.69 69.1061 100.69 69.0195C100.69 68.9329 100.72 68.8646 100.779 68.8145C100.839 68.7598 100.937 68.7324 101.073 68.7324H107.335C107.472 68.7324 107.57 68.7598 107.629 68.8145C107.688 68.8646 107.718 68.9329 107.718 69.0195C107.718 69.1061 107.688 69.1768 107.629 69.2314C107.57 69.2816 107.472 69.3066 107.335 69.3066ZM116.14 68.0146L109.933 71.4736C109.832 71.5283 109.757 71.5557 109.707 71.5557C109.63 71.5557 109.561 71.5283 109.502 71.4736C109.447 71.4144 109.42 71.346 109.42 71.2686C109.42 71.1546 109.497 71.0544 109.652 70.9678L114.971 68.0146L109.659 65.0615C109.504 64.9749 109.427 64.8747 109.427 64.7607C109.427 64.6833 109.454 64.6172 109.509 64.5625C109.568 64.5033 109.636 64.4736 109.714 64.4736C109.764 64.4736 109.839 64.501 109.939 64.5557L116.14 68.0146ZM129.709 64.5762V71.4258H131.199C131.336 71.4258 131.434 71.4531 131.493 71.5078C131.552 71.5579 131.582 71.6263 131.582 71.7129C131.582 71.7949 131.552 71.8633 131.493 71.918C131.434 71.9727 131.336 72 131.199 72H127.638C127.501 72 127.403 71.9727 127.344 71.918C127.285 71.8633 127.255 71.7949 127.255 71.7129C127.255 71.6263 127.285 71.5579 127.344 71.5078C127.403 71.4531 127.501 71.4258 127.638 71.4258H129.128V64.5762H126.776V66.5654C126.776 66.7067 126.749 66.807 126.694 66.8662C126.644 66.9255 126.576 66.9551 126.489 66.9551C126.407 66.9551 126.339 66.9255 126.284 66.8662C126.229 66.807 126.202 66.7067 126.202 66.5654V64.002H132.635V66.5654C132.635 66.7067 132.607 66.807 132.553 66.8662C132.503 66.9255 132.434 66.9551 132.348 66.9551C132.261 66.9551 132.19 66.9255 132.136 66.8662C132.086 66.807 132.061 66.7067 132.061 66.5654V64.5762H129.709ZM135.943 63.4209V66.9551C136.308 66.5586 136.657 66.2806 136.989 66.1211C137.326 65.957 137.702 65.875 138.117 65.875C138.564 65.875 138.942 65.9548 139.252 66.1143C139.566 66.2692 139.828 66.5107 140.038 66.8389C140.248 67.1624 140.353 67.5042 140.353 67.8643V71.4258H140.995C141.136 71.4258 141.234 71.4531 141.289 71.5078C141.348 71.5579 141.378 71.6263 141.378 71.7129C141.378 71.7949 141.348 71.8633 141.289 71.918C141.234 71.9727 141.136 72 140.995 72H139.129C138.988 72 138.887 71.9727 138.828 71.918C138.769 71.8633 138.739 71.7949 138.739 71.7129C138.739 71.6263 138.769 71.5579 138.828 71.5078C138.887 71.4531 138.988 71.4258 139.129 71.4258H139.771V67.9053C139.771 67.4906 139.621 67.1442 139.32 66.8662C139.024 66.5882 138.609 66.4492 138.076 66.4492C137.657 66.4492 137.299 66.5518 137.003 66.7568C136.789 66.9027 136.436 67.2467 135.943 67.7891V71.4258H136.593C136.729 71.4258 136.827 71.4531 136.887 71.5078C136.946 71.5579 136.976 71.6263 136.976 71.7129C136.976 71.7949 136.946 71.8633 136.887 71.918C136.827 71.9727 136.729 72 136.593 72H134.72C134.583 72 134.485 71.9727 134.426 71.918C134.367 71.8633 134.337 71.7949 134.337 71.7129C134.337 71.6263 134.367 71.5579 134.426 71.5078C134.485 71.4531 134.583 71.4258 134.72 71.4258H135.369V64.002H134.597C134.46 64.002 134.362 63.9746 134.303 63.9199C134.243 63.8652 134.214 63.7946 134.214 63.708C134.214 63.626 134.243 63.5576 134.303 63.5029C134.362 63.4482 134.46 63.4209 134.597 63.4209H135.943ZM146.525 63.1338V64.6172H145.678V63.1338H146.525ZM146.546 66.0801V71.4258H148.802C148.943 71.4258 149.043 71.4531 149.103 71.5078C149.162 71.5579 149.191 71.6263 149.191 71.7129C149.191 71.7949 149.162 71.8633 149.103 71.918C149.043 71.9727 148.943 72 148.802 72H143.716C143.579 72 143.481 71.9727 143.422 71.918C143.363 71.8633 143.333 71.7949 143.333 71.7129C143.333 71.6263 143.363 71.5579 143.422 71.5078C143.481 71.4531 143.579 71.4258 143.716 71.4258H145.972V66.6611H144.297C144.16 66.6611 144.06 66.6338 143.996 66.5791C143.937 66.5244 143.907 66.4561 143.907 66.374C143.907 66.2874 143.937 66.2168 143.996 66.1621C144.055 66.1074 144.156 66.0801 144.297 66.0801H146.546ZM157.046 66.6611V66.4697C157.046 66.3285 157.073 66.2282 157.128 66.1689C157.183 66.1097 157.251 66.0801 157.333 66.0801C157.42 66.0801 157.49 66.1097 157.545 66.1689C157.6 66.2282 157.627 66.3285 157.627 66.4697V67.7686C157.622 67.9098 157.593 68.0101 157.538 68.0693C157.488 68.1286 157.42 68.1582 157.333 68.1582C157.256 68.1582 157.189 68.1331 157.135 68.083C157.085 68.0283 157.055 67.9395 157.046 67.8164C157.019 67.4928 156.804 67.1852 156.403 66.8936C156.007 66.6019 155.471 66.4561 154.797 66.4561C153.945 66.4561 153.298 66.7227 152.855 67.2559C152.413 67.7891 152.192 68.3997 152.192 69.0879C152.192 69.8307 152.436 70.4437 152.924 70.9268C153.411 71.4098 154.043 71.6514 154.817 71.6514C155.264 71.6514 155.717 71.5693 156.178 71.4053C156.643 71.2412 157.062 70.9769 157.436 70.6123C157.531 70.5212 157.616 70.4756 157.688 70.4756C157.766 70.4756 157.83 70.5029 157.88 70.5576C157.935 70.6077 157.962 70.6715 157.962 70.749C157.962 70.945 157.732 71.1934 157.271 71.4941C156.529 71.9818 155.701 72.2256 154.79 72.2256C153.865 72.2256 153.104 71.9316 152.507 71.3438C151.914 70.7513 151.618 70.0016 151.618 69.0947C151.618 68.1696 151.921 67.4017 152.527 66.791C153.138 66.1803 153.906 65.875 154.831 65.875C155.711 65.875 156.449 66.137 157.046 66.6611ZM161.893 69.4434V72H160.546C160.409 72 160.311 71.9727 160.252 71.918C160.193 71.8633 160.163 71.7949 160.163 71.7129C160.163 71.6263 160.193 71.5579 160.252 71.5078C160.311 71.4531 160.409 71.4258 160.546 71.4258H161.318V64.002H160.546C160.409 64.002 160.311 63.9746 160.252 63.9199C160.193 63.8652 160.163 63.7946 160.163 63.708C160.163 63.626 160.193 63.5576 160.252 63.5029C160.311 63.4482 160.409 63.4209 160.546 63.4209H161.893V68.7119L164.333 66.6611H164.039C163.902 66.6611 163.804 66.6338 163.745 66.5791C163.686 66.5244 163.656 66.4561 163.656 66.374C163.656 66.2874 163.686 66.2168 163.745 66.1621C163.804 66.1074 163.902 66.0801 164.039 66.0801H165.878C166.019 66.0801 166.119 66.1074 166.179 66.1621C166.238 66.2168 166.268 66.2874 166.268 66.374C166.268 66.4561 166.238 66.5244 166.179 66.5791C166.119 66.6338 166.019 66.6611 165.878 66.6611H165.215L162.973 68.5342L165.81 71.4258H166.473C166.614 71.4258 166.714 71.4531 166.773 71.5078C166.833 71.5579 166.862 71.6263 166.862 71.7129C166.862 71.7949 166.833 71.8633 166.773 71.918C166.714 71.9727 166.614 72 166.473 72H164.613C164.477 72 164.379 71.9727 164.319 71.918C164.26 71.8633 164.23 71.7949 164.23 71.7129C164.23 71.6263 164.26 71.5579 164.319 71.5078C164.379 71.4531 164.477 71.4258 164.613 71.4258H165.017L162.549 68.8896L161.893 69.4434ZM174.573 69.1768H168.722C168.822 69.9196 169.132 70.5189 169.651 70.9746C170.175 71.4258 170.823 71.6514 171.593 71.6514C172.021 71.6514 172.47 71.5807 172.939 71.4395C173.409 71.2982 173.792 71.1113 174.088 70.8789C174.174 70.8105 174.25 70.7764 174.313 70.7764C174.386 70.7764 174.45 70.806 174.505 70.8652C174.56 70.9199 174.587 70.986 174.587 71.0635C174.587 71.141 174.55 71.2161 174.478 71.2891C174.259 71.5169 173.869 71.7311 173.309 71.9316C172.753 72.1276 172.181 72.2256 171.593 72.2256C170.608 72.2256 169.786 71.9043 169.125 71.2617C168.469 70.6146 168.141 69.833 168.141 68.917C168.141 68.083 168.448 67.3675 169.063 66.7705C169.683 66.1735 170.449 65.875 171.36 65.875C172.299 65.875 173.072 66.1826 173.678 66.7979C174.284 67.4085 174.582 68.2015 174.573 69.1768ZM173.992 68.5957C173.878 67.9622 173.577 67.4473 173.09 67.0508C172.607 66.6543 172.03 66.4561 171.36 66.4561C170.69 66.4561 170.114 66.652 169.631 67.0439C169.148 67.4359 168.847 67.9531 168.729 68.5957H173.992ZM179.188 66.0801V67.5293C179.935 66.8548 180.493 66.4219 180.862 66.2305C181.236 66.0345 181.58 65.9365 181.895 65.9365C182.236 65.9365 182.553 66.0527 182.845 66.2852C183.141 66.513 183.289 66.6862 183.289 66.8047C183.289 66.8913 183.259 66.9642 183.2 67.0234C183.146 67.0781 183.075 67.1055 182.988 67.1055C182.943 67.1055 182.904 67.0986 182.872 67.085C182.84 67.0667 182.781 67.0143 182.694 66.9277C182.535 66.7682 182.396 66.6589 182.277 66.5996C182.159 66.5404 182.043 66.5107 181.929 66.5107C181.678 66.5107 181.375 66.611 181.02 66.8115C180.669 67.012 180.058 67.502 179.188 68.2812V71.4258H181.73C181.872 71.4258 181.972 71.4531 182.031 71.5078C182.09 71.5579 182.12 71.6263 182.12 71.7129C182.12 71.7949 182.09 71.8633 182.031 71.918C181.972 71.9727 181.872 72 181.73 72H177.226C177.089 72 176.991 71.9749 176.932 71.9248C176.872 71.8701 176.843 71.8018 176.843 71.7197C176.843 71.6423 176.87 71.5785 176.925 71.5283C176.984 71.4736 177.084 71.4463 177.226 71.4463H178.613V66.6611H177.554C177.417 66.6611 177.319 66.6338 177.26 66.5791C177.201 66.5244 177.171 66.4538 177.171 66.3672C177.171 66.2852 177.198 66.2168 177.253 66.1621C177.312 66.1074 177.412 66.0801 177.554 66.0801H179.188ZM196.729 72L194.062 66.6611H193.892C193.755 66.6611 193.657 66.6338 193.598 66.5791C193.538 66.5244 193.509 66.4561 193.509 66.374C193.509 66.3148 193.522 66.2624 193.55 66.2168C193.582 66.1667 193.62 66.1325 193.666 66.1143C193.716 66.0915 193.791 66.0801 193.892 66.0801H195.464C195.601 66.0801 195.699 66.1074 195.758 66.1621C195.817 66.2168 195.847 66.2874 195.847 66.374C195.847 66.4561 195.817 66.5244 195.758 66.5791C195.699 66.6338 195.601 66.6611 195.464 66.6611H194.691L197.036 71.3711L199.347 66.6611H198.574C198.438 66.6611 198.34 66.6338 198.28 66.5791C198.221 66.5244 198.191 66.4538 198.191 66.3672C198.191 66.2852 198.221 66.2168 198.28 66.1621C198.34 66.1074 198.438 66.0801 198.574 66.0801H200.14C200.281 66.0801 200.381 66.1074 200.44 66.1621C200.5 66.2168 200.529 66.2874 200.529 66.374C200.529 66.4333 200.511 66.488 200.475 66.5381C200.438 66.5882 200.397 66.6224 200.352 66.6406C200.306 66.6543 200.178 66.6611 199.969 66.6611L196.332 74.0645H197.228C197.364 74.0645 197.462 74.0895 197.521 74.1396C197.581 74.1943 197.61 74.265 197.61 74.3516C197.61 74.4336 197.581 74.502 197.521 74.5566C197.462 74.6113 197.364 74.6387 197.228 74.6387H193.919C193.782 74.6387 193.684 74.6113 193.625 74.5566C193.566 74.5065 193.536 74.4382 193.536 74.3516C193.536 74.265 193.566 74.1943 193.625 74.1396C193.684 74.0895 193.782 74.0645 193.919 74.0645H195.717L196.729 72ZM206.75 72V71.1729C205.916 71.8747 205.025 72.2256 204.077 72.2256C203.389 72.2256 202.851 72.0524 202.464 71.7061C202.076 71.3551 201.883 70.9268 201.883 70.4209C201.883 69.8649 202.138 69.3796 202.648 68.9648C203.159 68.5501 203.904 68.3428 204.884 68.3428C205.148 68.3428 205.435 68.361 205.745 68.3975C206.055 68.4294 206.39 68.4818 206.75 68.5547V67.625C206.75 67.3105 206.604 67.0371 206.312 66.8047C206.021 66.5723 205.583 66.4561 205 66.4561C204.553 66.4561 203.927 66.5859 203.12 66.8457C202.974 66.8913 202.881 66.9141 202.84 66.9141C202.767 66.9141 202.703 66.8867 202.648 66.832C202.598 66.7773 202.573 66.709 202.573 66.627C202.573 66.5495 202.596 66.488 202.642 66.4424C202.705 66.374 202.963 66.2806 203.414 66.1621C204.125 65.9707 204.663 65.875 205.027 65.875C205.752 65.875 206.317 66.055 206.723 66.415C207.128 66.7705 207.331 67.1738 207.331 67.625V71.4258H208.097C208.238 71.4258 208.338 71.4531 208.397 71.5078C208.457 71.5579 208.486 71.6263 208.486 71.7129C208.486 71.7949 208.457 71.8633 208.397 71.918C208.338 71.9727 208.238 72 208.097 72H206.75ZM206.75 69.1426C206.481 69.0651 206.196 69.0081 205.896 68.9717C205.595 68.9352 205.278 68.917 204.945 68.917C204.111 68.917 203.46 69.097 202.99 69.457C202.635 69.7259 202.457 70.0472 202.457 70.4209C202.457 70.7673 202.591 71.0589 202.86 71.2959C203.134 71.5329 203.53 71.6514 204.05 71.6514C204.547 71.6514 205.007 71.5534 205.431 71.3574C205.859 71.1569 206.299 70.8402 206.75 70.4072V69.1426ZM212.82 66.0801V67.5293C213.568 66.8548 214.126 66.4219 214.495 66.2305C214.869 66.0345 215.213 65.9365 215.527 65.9365C215.869 65.9365 216.186 66.0527 216.478 66.2852C216.774 66.513 216.922 66.6862 216.922 66.8047C216.922 66.8913 216.892 66.9642 216.833 67.0234C216.778 67.0781 216.708 67.1055 216.621 67.1055C216.576 67.1055 216.537 67.0986 216.505 67.085C216.473 67.0667 216.414 67.0143 216.327 66.9277C216.168 66.7682 216.029 66.6589 215.91 66.5996C215.792 66.5404 215.675 66.5107 215.562 66.5107C215.311 66.5107 215.008 66.611 214.652 66.8115C214.301 67.012 213.691 67.502 212.82 68.2812V71.4258H215.363C215.505 71.4258 215.605 71.4531 215.664 71.5078C215.723 71.5579 215.753 71.6263 215.753 71.7129C215.753 71.7949 215.723 71.8633 215.664 71.918C215.605 71.9727 215.505 72 215.363 72H210.858C210.722 72 210.624 71.9749 210.564 71.9248C210.505 71.8701 210.476 71.8018 210.476 71.7197C210.476 71.6423 210.503 71.5785 210.558 71.5283C210.617 71.4736 210.717 71.4463 210.858 71.4463H212.246V66.6611H211.187C211.05 66.6611 210.952 66.6338 210.893 66.5791C210.833 66.5244 210.804 66.4538 210.804 66.3672C210.804 66.2852 210.831 66.2168 210.886 66.1621C210.945 66.1074 211.045 66.0801 211.187 66.0801H212.82ZM220.06 66.0801V66.9482C220.461 66.5426 220.823 66.2624 221.146 66.1074C221.47 65.9525 221.835 65.875 222.24 65.875C222.678 65.875 223.076 65.9684 223.437 66.1553C223.692 66.292 223.922 66.5199 224.127 66.8389C224.337 67.1533 224.441 67.4769 224.441 67.8096V71.4258H224.927C225.063 71.4258 225.161 71.4531 225.221 71.5078C225.28 71.5579 225.31 71.6263 225.31 71.7129C225.31 71.7949 225.28 71.8633 225.221 71.918C225.161 71.9727 225.063 72 224.927 72H223.389C223.247 72 223.147 71.9727 223.088 71.918C223.029 71.8633 222.999 71.7949 222.999 71.7129C222.999 71.6263 223.029 71.5579 223.088 71.5078C223.147 71.4531 223.247 71.4258 223.389 71.4258H223.867V67.9053C223.867 67.4997 223.719 67.1579 223.423 66.8799C223.127 66.5973 222.73 66.4561 222.233 66.4561C221.855 66.4561 221.527 66.5335 221.249 66.6885C220.971 66.8389 220.575 67.2171 220.06 67.8232V71.4258H220.709C220.846 71.4258 220.944 71.4531 221.003 71.5078C221.062 71.5579 221.092 71.6263 221.092 71.7129C221.092 71.7949 221.062 71.8633 221.003 71.918C220.944 71.9727 220.846 72 220.709 72H218.836C218.699 72 218.601 71.9727 218.542 71.918C218.483 71.8633 218.453 71.7949 218.453 71.7129C218.453 71.6263 218.483 71.5579 218.542 71.5078C218.601 71.4531 218.699 71.4258 218.836 71.4258H219.485V66.6611H219C218.863 66.6611 218.765 66.6338 218.706 66.5791C218.647 66.5244 218.617 66.4538 218.617 66.3672C218.617 66.2852 218.647 66.2168 218.706 66.1621C218.765 66.1074 218.863 66.0801 219 66.0801H220.06Z" fill="black"/>
</svg>
