<svg width="382" height="328" viewBox="0 0 382 328" fill="none" xmlns="http://www.w3.org/2000/svg">
<circle cx="366" cy="52" r="13.5" fill="#496752" stroke="#496752"/>
<circle cx="366" cy="206" r="13.5" fill="#496752" stroke="#496752"/>
<circle cx="252" cy="206" r="13.5" fill="#496752" stroke="#496752"/>
<circle cx="366" cy="14" r="13.5" fill="#496752" stroke="#496752"/>
<circle cx="366" cy="168" r="13.5" fill="#496752" stroke="#496752"/>
<circle cx="254" cy="128" r="13.5" fill="#496752" stroke="#496752"/>
<circle cx="254" cy="167" r="13.5" fill="#496752" stroke="#496752"/>
<circle cx="310" cy="52" r="13.5" fill="#496752" stroke="#496752"/>
<circle cx="310" cy="206" r="13.5" fill="#496752" stroke="#496752"/>
<circle cx="196" cy="206" r="13.5" fill="#496752" stroke="#496752"/>
<circle cx="254" cy="90" r="13.5" fill="#496752" stroke="#496752"/>
<circle cx="310" cy="14" r="13.5" fill="#496752" stroke="#496752"/>
<circle cx="310" cy="168" r="13.5" fill="#496752" stroke="#496752"/>
<circle cx="196" cy="128" r="13.5" fill="#496752" stroke="#496752"/>
<circle cx="196" cy="167" r="13.5" fill="#496752" stroke="#496752"/>
<circle cx="196" cy="90" r="13.5" fill="#496752" stroke="#496752"/>
<circle cx="139" cy="128" r="13.5" fill="#496752" stroke="#496752"/>
<circle cx="139" cy="90" r="13.5" fill="#496752" stroke="#496752"/>
<circle cx="25" cy="52" r="14" fill="#EFB387"/>
<circle cx="25" cy="129" r="14" fill="#EFB387"/>
<circle cx="25" cy="206" r="14" fill="#EFB387"/>
<circle cx="25" cy="168" r="14" fill="#EFB387"/>
<circle cx="310" cy="129" r="14" fill="#EFB387"/>
<circle cx="196" cy="52" r="14" fill="#EFB387"/>
<circle cx="82" cy="52" r="14" fill="#EFB387"/>
<circle cx="253" cy="52" r="14" fill="#EFB387"/>
<circle cx="139" cy="52" r="14" fill="#EFB387"/>
<circle cx="83" cy="129" r="14" fill="#EFB387"/>
<circle cx="83" cy="206" r="14" fill="#EFB387"/>
<circle cx="83" cy="168" r="14" fill="#EFB387"/>
<circle cx="368" cy="129" r="14" fill="#EFB387"/>
<circle cx="25" cy="14" r="14" fill="#EFB387"/>
<circle cx="25" cy="91" r="14" fill="#EFB387"/>
<circle cx="310" cy="91" r="14" fill="#EFB387"/>
<circle cx="196" cy="14" r="14" fill="#EFB387"/>
<circle cx="81" cy="14" r="14" fill="#EFB387"/>
<circle cx="252" cy="14" r="14" fill="#EFB387"/>
<circle cx="139" cy="14" r="14" fill="#EFB387"/>
<circle cx="83" cy="91" r="14" fill="#EFB387"/>
<circle cx="139" cy="206" r="14" fill="#EFB387"/>
<circle cx="139" cy="168" r="14" fill="#EFB387"/>
<circle cx="368" cy="91" r="14" fill="#EFB387"/>
<path d="M309.5 55C330.7 71.8 356.667 62 367 55M309.5 18.5C330.7 35.3 356.667 25.5 367 18.5" stroke="#D9BB9E" stroke-width="4" stroke-linecap="round"/>
<path d="M309.5 209C330.7 225.8 356.667 216 367 209" stroke="#D9BB9E" stroke-width="4" stroke-linecap="round"/>
<path d="M310 132.5C331.2 149.3 357.167 139.5 367.5 132.5M310 96C331.2 112.8 357.167 103 367.5 96" stroke="#483623" stroke-width="11" stroke-linecap="round"/>
<path d="M25 132.5C46.2 149.3 72.1667 139.5 82.5 132.5M25 96C46.2 112.8 72.1667 103 82.5 96" stroke="#483623" stroke-width="11" stroke-linecap="round"/>
<path d="M253.5 96C243.167 103 217.2 112.8 196 96C185.667 103 159.7 112.8 138.5 96M253.5 133.5C243.167 140.5 217.2 150.3 196 133.5C185.667 140.5 159.7 150.3 138.5 133.5" stroke="#D9BB9E" stroke-width="4" stroke-linecap="round"/>
<path d="M196 172.5C217.2 189.3 243.167 179.5 253.5 172.5" stroke="#D9BB9E" stroke-width="4" stroke-linecap="round"/>
<path d="M369 172.5C358.667 179.5 332.7 189.3 311.5 172.5C301.167 179.5 275.2 189.3 254 172.5" stroke="#D9BB9E" stroke-width="4" stroke-linecap="round"/>
<path d="M310 209C299.667 216 273.7 225.8 252.5 209C242.167 216 216.2 225.8 195 209" stroke="#D9BB9E" stroke-width="4" stroke-linecap="round"/>
<path d="M140 14C129.667 21 103.7 30.8 82.5 14C72.1667 21 46.2 30.8 25 14M140 51.5C129.667 58.5 103.7 68.3 82.5 51.5C72.1667 58.5 46.2 68.3 25 51.5M140 208C129.667 215 103.7 224.8 82.5 208C72.1667 215 46.2 224.8 25 208M140 170.5C129.667 177.5 103.7 187.3 82.5 170.5C72.1667 177.5 46.2 187.3 25 170.5" stroke="#483623" stroke-width="11" stroke-linecap="round"/>
<path d="M255 14C244.667 21 218.7 30.8 197.5 14C187.167 21 161.2 30.8 140 14M255 51.5C244.667 58.5 218.7 68.3 197.5 51.5C187.167 58.5 161.2 68.3 140 51.5" stroke="#483623" stroke-width="11" stroke-linecap="round"/>
<circle cx="140" cy="265" r="13.5" fill="#496752" stroke="#496752"/>
<circle cx="84" cy="265" r="13.5" fill="#496752" stroke="#496752"/>
<circle cx="83" cy="309" r="14" fill="#EFB387"/>
<circle cx="141" cy="309" r="14" fill="#EFB387"/>
<path d="M83.5 269.5C104.7 286.3 130.667 276.5 141 269.5" stroke="#D9BB9E" stroke-width="4" stroke-linecap="round"/>
<path d="M83 312.5C104.2 329.3 130.167 319.5 140.5 312.5" stroke="#483623" stroke-width="11" stroke-linecap="round"/>
<path d="M172.391 260.156V261.599H173.806C174.143 261.599 174.382 261.665 174.523 261.797C174.669 261.924 174.742 262.093 174.742 262.303C174.742 262.508 174.669 262.676 174.523 262.809C174.382 262.936 174.143 263 173.806 263H170.771C170.433 263 170.192 262.936 170.046 262.809C169.905 262.676 169.834 262.506 169.834 262.296C169.834 262.091 169.907 261.924 170.053 261.797C170.199 261.665 170.438 261.599 170.771 261.599H170.989V256.116H170.771C170.433 256.116 170.192 256.052 170.046 255.925C169.905 255.793 169.834 255.622 169.834 255.412C169.834 255.202 169.905 255.034 170.046 254.906C170.192 254.774 170.433 254.708 170.771 254.708L173.997 254.715C174.945 254.715 175.695 254.975 176.246 255.494C176.802 256.009 177.08 256.638 177.08 257.381C177.08 257.791 176.987 258.178 176.8 258.543C176.659 258.816 176.422 259.088 176.089 259.356C175.761 259.621 175.424 259.821 175.077 259.958C174.735 260.09 174.282 260.156 173.717 260.156H172.391ZM172.391 258.755H173.689C174.3 258.755 174.783 258.618 175.139 258.345C175.499 258.067 175.679 257.734 175.679 257.347C175.679 257.019 175.533 256.731 175.241 256.485C174.954 256.239 174.542 256.116 174.004 256.116H172.391V258.755ZM184.586 256.793V261.599C184.882 261.599 185.101 261.665 185.242 261.797C185.383 261.929 185.454 262.098 185.454 262.303C185.454 262.508 185.381 262.676 185.235 262.809C185.094 262.936 184.855 263 184.518 263H183.185V262.679C182.784 262.861 182.401 262.998 182.036 263.089C181.672 263.18 181.325 263.226 180.997 263.226C180.537 263.226 180.138 263.13 179.801 262.938C179.464 262.743 179.197 262.474 179.001 262.132C178.86 261.886 178.789 261.578 178.789 261.209V258.194H178.55C178.213 258.194 177.971 258.131 177.825 258.003C177.684 257.871 177.613 257.7 177.613 257.49C177.613 257.285 177.684 257.119 177.825 256.991C177.971 256.859 178.213 256.793 178.55 256.793H180.19V260.963C180.19 261.259 180.261 261.478 180.402 261.619C180.548 261.756 180.769 261.824 181.065 261.824C181.348 261.824 181.651 261.77 181.975 261.66C182.303 261.546 182.706 261.343 183.185 261.052V258.194H182.679C182.341 258.194 182.1 258.131 181.954 258.003C181.813 257.871 181.742 257.7 181.742 257.49C181.742 257.285 181.813 257.119 181.954 256.991C182.1 256.859 182.341 256.793 182.679 256.793H184.586ZM188.599 256.793V257.265C188.854 257.046 189.134 256.882 189.439 256.772C189.749 256.663 190.084 256.608 190.444 256.608C191.274 256.608 191.93 256.866 192.413 257.381C192.796 257.791 192.987 258.329 192.987 258.994V261.599C193.284 261.599 193.502 261.665 193.644 261.797C193.785 261.924 193.855 262.093 193.855 262.303C193.855 262.508 193.783 262.676 193.637 262.809C193.495 262.936 193.256 263 192.919 263H191.654C191.317 263 191.076 262.936 190.93 262.809C190.788 262.676 190.718 262.506 190.718 262.296C190.718 262.091 190.788 261.924 190.93 261.797C191.071 261.665 191.29 261.599 191.586 261.599V258.953C191.586 258.648 191.504 258.424 191.34 258.283C191.126 258.101 190.804 258.01 190.376 258.01C190.052 258.01 189.768 258.074 189.521 258.201C189.28 258.324 188.972 258.589 188.599 258.994V261.599C188.959 261.599 189.191 261.633 189.296 261.701C189.519 261.838 189.631 262.038 189.631 262.303C189.631 262.508 189.558 262.676 189.412 262.809C189.271 262.936 189.032 263 188.694 263H187.102C186.764 263 186.523 262.936 186.377 262.809C186.236 262.676 186.165 262.506 186.165 262.296C186.165 262.041 186.274 261.842 186.493 261.701C186.603 261.633 186.837 261.599 187.197 261.599V258.194C186.901 258.194 186.682 258.128 186.541 257.996C186.4 257.864 186.329 257.695 186.329 257.49C186.329 257.285 186.4 257.119 186.541 256.991C186.687 256.859 186.928 256.793 187.266 256.793H188.599ZM200.609 257.046C200.778 256.886 200.951 256.807 201.129 256.807C201.329 256.807 201.493 256.88 201.621 257.025C201.753 257.167 201.819 257.404 201.819 257.736V258.639C201.819 258.976 201.753 259.215 201.621 259.356C201.493 259.498 201.325 259.568 201.115 259.568C200.924 259.568 200.762 259.514 200.63 259.404C200.534 259.322 200.459 259.156 200.404 258.905C200.35 258.65 200.217 258.461 200.008 258.338C199.639 258.119 199.167 258.01 198.593 258.01C197.932 258.01 197.401 258.203 197 258.591C196.604 258.978 196.405 259.468 196.405 260.061C196.405 260.607 196.597 261.04 196.979 261.359C197.362 261.674 197.998 261.831 198.887 261.831C199.47 261.831 199.946 261.772 200.315 261.653C200.534 261.58 200.742 261.457 200.938 261.284C201.133 261.106 201.311 261.018 201.471 261.018C201.662 261.018 201.826 261.088 201.963 261.229C202.104 261.371 202.175 261.537 202.175 261.729C202.175 262.038 201.963 262.332 201.539 262.61C200.91 263.025 199.99 263.232 198.777 263.232C197.688 263.232 196.84 263.007 196.234 262.556C195.414 261.95 195.004 261.12 195.004 260.067C195.004 259.069 195.337 258.244 196.002 257.593C196.667 256.937 197.535 256.608 198.606 256.608C198.994 256.608 199.354 256.645 199.687 256.718C200.019 256.791 200.327 256.9 200.609 257.046ZM205.388 254.134V257.121C205.679 256.948 205.973 256.82 206.27 256.738C206.57 256.652 206.873 256.608 207.179 256.608C207.662 256.608 208.092 256.69 208.471 256.854C208.849 257.019 209.161 257.278 209.407 257.634C209.658 257.985 209.783 258.429 209.783 258.967V261.599C210.139 261.599 210.371 261.633 210.48 261.701C210.699 261.842 210.809 262.043 210.809 262.303C210.809 262.508 210.738 262.676 210.597 262.809C210.455 262.936 210.216 263 209.879 263H208.279C207.947 263 207.707 262.936 207.562 262.809C207.42 262.676 207.35 262.506 207.35 262.296C207.35 262.041 207.459 261.842 207.678 261.701C207.792 261.628 208.024 261.594 208.375 261.599V259.062C208.375 258.702 208.293 258.45 208.129 258.304C207.915 258.108 207.598 258.01 207.179 258.01C206.869 258.01 206.593 258.071 206.352 258.194C206.115 258.313 205.793 258.573 205.388 258.974V261.599C205.748 261.599 205.98 261.633 206.085 261.701C206.308 261.842 206.42 262.043 206.42 262.303C206.42 262.508 206.347 262.676 206.201 262.809C206.06 262.936 205.821 263 205.483 263H203.891C203.553 263 203.312 262.936 203.166 262.809C203.025 262.676 202.954 262.506 202.954 262.296C202.954 262.041 203.066 261.842 203.289 261.701C203.398 261.628 203.631 261.594 203.986 261.599V255.535H203.747C203.41 255.535 203.168 255.471 203.022 255.344C202.881 255.212 202.811 255.041 202.811 254.831C202.811 254.626 202.881 254.46 203.022 254.332C203.168 254.2 203.41 254.134 203.747 254.134H205.388ZM218.759 260.607H213.01C213.156 260.972 213.413 261.266 213.782 261.489C214.156 261.713 214.66 261.824 215.293 261.824C215.812 261.824 216.503 261.713 217.364 261.489C217.72 261.398 217.966 261.353 218.103 261.353C218.289 261.353 218.447 261.419 218.574 261.551C218.702 261.683 218.766 261.849 218.766 262.05C218.766 262.232 218.697 262.387 218.561 262.515C218.378 262.683 217.934 262.845 217.228 263C216.521 263.15 215.842 263.226 215.19 263.226C214.069 263.226 213.172 262.909 212.497 262.275C211.827 261.642 211.492 260.863 211.492 259.938C211.492 258.953 211.854 258.153 212.579 257.538C213.308 256.918 214.147 256.608 215.095 256.608C215.664 256.608 216.186 256.709 216.66 256.909C217.139 257.11 217.494 257.326 217.727 257.559C218.055 257.896 218.326 258.313 218.54 258.81C218.686 259.156 218.759 259.557 218.759 260.013V260.607ZM217.207 259.206C216.993 258.805 216.713 258.507 216.366 258.311C216.02 258.11 215.607 258.01 215.129 258.01C214.655 258.01 214.245 258.11 213.898 258.311C213.552 258.507 213.27 258.805 213.051 259.206H217.207ZM226.866 254.134V261.599H227.105C227.438 261.599 227.677 261.665 227.823 261.797C227.969 261.924 228.042 262.093 228.042 262.303C228.042 262.508 227.969 262.676 227.823 262.809C227.682 262.936 227.443 263 227.105 263H225.465V262.658C225.146 262.845 224.811 262.986 224.46 263.082C224.114 263.178 223.754 263.226 223.38 263.226C222.327 263.226 221.479 262.923 220.837 262.316C220.194 261.706 219.873 260.947 219.873 260.04C219.873 259.092 220.21 258.283 220.885 257.613C221.559 256.943 222.382 256.608 223.353 256.608C223.717 256.608 224.075 256.665 224.426 256.779C224.777 256.889 225.123 257.055 225.465 257.278V255.535H225.226C224.888 255.535 224.647 255.471 224.501 255.344C224.36 255.212 224.289 255.043 224.289 254.838C224.289 254.628 224.36 254.46 224.501 254.332C224.647 254.2 224.888 254.134 225.226 254.134H226.866ZM225.465 260.081C225.465 259.502 225.262 259.012 224.856 258.611C224.451 258.21 223.954 258.01 223.366 258.01C222.783 258.01 222.288 258.21 221.883 258.611C221.477 259.012 221.274 259.495 221.274 260.061C221.274 260.576 221.457 260.999 221.821 261.332C222.186 261.66 222.701 261.824 223.366 261.824C224.027 261.824 224.542 261.66 224.911 261.332C225.28 260.999 225.465 260.582 225.465 260.081ZM239.021 254.134V257.121C239.312 256.948 239.606 256.82 239.902 256.738C240.203 256.652 240.506 256.608 240.812 256.608C241.295 256.608 241.725 256.69 242.104 256.854C242.482 257.019 242.794 257.278 243.04 257.634C243.291 257.985 243.416 258.429 243.416 258.967V261.599C243.771 261.599 244.004 261.633 244.113 261.701C244.332 261.842 244.441 262.043 244.441 262.303C244.441 262.508 244.371 262.676 244.229 262.809C244.088 262.936 243.849 263 243.512 263H241.912C241.579 263 241.34 262.936 241.194 262.809C241.053 262.676 240.982 262.506 240.982 262.296C240.982 262.041 241.092 261.842 241.311 261.701C241.424 261.628 241.657 261.594 242.008 261.599V259.062C242.008 258.702 241.926 258.45 241.762 258.304C241.548 258.108 241.231 258.01 240.812 258.01C240.502 258.01 240.226 258.071 239.984 258.194C239.747 258.313 239.426 258.573 239.021 258.974V261.599C239.381 261.599 239.613 261.633 239.718 261.701C239.941 261.842 240.053 262.043 240.053 262.303C240.053 262.508 239.98 262.676 239.834 262.809C239.693 262.936 239.453 263 239.116 263H237.523C237.186 263 236.945 262.936 236.799 262.809C236.658 262.676 236.587 262.506 236.587 262.296C236.587 262.041 236.699 261.842 236.922 261.701C237.031 261.628 237.264 261.594 237.619 261.599V255.535H237.38C237.043 255.535 236.801 255.471 236.655 255.344C236.514 255.212 236.443 255.041 236.443 254.831C236.443 254.626 236.514 254.46 236.655 254.332C236.801 254.2 237.043 254.134 237.38 254.134H239.021ZM252.515 260.013C252.515 260.55 252.364 261.072 252.063 261.578C251.767 262.079 251.323 262.48 250.73 262.781C250.143 263.077 249.527 263.226 248.885 263.226C248.247 263.226 247.636 263.08 247.053 262.788C246.469 262.492 246.025 262.091 245.72 261.585C245.414 261.079 245.262 260.55 245.262 259.999C245.262 259.438 245.417 258.889 245.727 258.352C246.036 257.809 246.481 257.383 247.06 257.073C247.643 256.763 248.251 256.608 248.885 256.608C249.523 256.608 250.136 256.768 250.724 257.087C251.316 257.401 251.763 257.827 252.063 258.365C252.364 258.898 252.515 259.448 252.515 260.013ZM251.113 260.02C251.113 259.568 250.951 259.154 250.628 258.775C250.186 258.265 249.605 258.01 248.885 258.01C248.251 258.01 247.723 258.213 247.299 258.618C246.875 259.024 246.663 259.493 246.663 260.026C246.663 260.464 246.877 260.874 247.306 261.257C247.734 261.635 248.26 261.824 248.885 261.824C249.514 261.824 250.042 261.635 250.471 261.257C250.899 260.874 251.113 260.462 251.113 260.02ZM257.983 254.134V261.599H259.665C260.002 261.599 260.242 261.665 260.383 261.797C260.529 261.924 260.602 262.093 260.602 262.303C260.602 262.508 260.529 262.676 260.383 262.809C260.242 262.936 260.002 263 259.665 263H254.9C254.563 263 254.322 262.936 254.176 262.809C254.035 262.676 253.964 262.506 253.964 262.296C253.964 262.091 254.035 261.924 254.176 261.797C254.322 261.665 254.563 261.599 254.9 261.599H256.582V255.535H255.454C255.121 255.535 254.882 255.471 254.736 255.344C254.59 255.212 254.518 255.041 254.518 254.831C254.518 254.626 254.588 254.46 254.729 254.332C254.875 254.2 255.117 254.134 255.454 254.134H257.983ZM269.208 260.607H263.459C263.605 260.972 263.862 261.266 264.231 261.489C264.605 261.713 265.109 261.824 265.742 261.824C266.262 261.824 266.952 261.713 267.813 261.489C268.169 261.398 268.415 261.353 268.552 261.353C268.739 261.353 268.896 261.419 269.023 261.551C269.151 261.683 269.215 261.849 269.215 262.05C269.215 262.232 269.146 262.387 269.01 262.515C268.827 262.683 268.383 262.845 267.677 263C266.97 263.15 266.291 263.226 265.64 263.226C264.519 263.226 263.621 262.909 262.946 262.275C262.276 261.642 261.941 260.863 261.941 259.938C261.941 258.953 262.304 258.153 263.028 257.538C263.757 256.918 264.596 256.608 265.544 256.608C266.114 256.608 266.635 256.709 267.109 256.909C267.588 257.11 267.943 257.326 268.176 257.559C268.504 257.896 268.775 258.313 268.989 258.81C269.135 259.156 269.208 259.557 269.208 260.013V260.607ZM267.656 259.206C267.442 258.805 267.162 258.507 266.815 258.311C266.469 258.11 266.057 258.01 265.578 258.01C265.104 258.01 264.694 258.11 264.348 258.311C264.001 258.507 263.719 258.805 263.5 259.206H267.656ZM176.335 274.249H170.073C169.937 274.249 169.839 274.222 169.779 274.167C169.72 274.112 169.69 274.042 169.69 273.955C169.69 273.873 169.72 273.805 169.779 273.75C169.839 273.695 169.937 273.668 170.073 273.668H176.335C176.472 273.668 176.57 273.695 176.629 273.75C176.688 273.805 176.718 273.875 176.718 273.962C176.718 274.044 176.688 274.112 176.629 274.167C176.57 274.222 176.472 274.249 176.335 274.249ZM176.335 276.307H170.073C169.937 276.307 169.839 276.282 169.779 276.231C169.72 276.177 169.69 276.106 169.69 276.02C169.69 275.933 169.72 275.865 169.779 275.814C169.839 275.76 169.937 275.732 170.073 275.732H176.335C176.472 275.732 176.57 275.76 176.629 275.814C176.688 275.865 176.718 275.933 176.718 276.02C176.718 276.106 176.688 276.177 176.629 276.231C176.57 276.282 176.472 276.307 176.335 276.307ZM185.14 275.015L178.933 278.474C178.832 278.528 178.757 278.556 178.707 278.556C178.63 278.556 178.561 278.528 178.502 278.474C178.447 278.414 178.42 278.346 178.42 278.269C178.42 278.155 178.497 278.054 178.652 277.968L183.971 275.015L178.659 272.062C178.504 271.975 178.427 271.875 178.427 271.761C178.427 271.683 178.454 271.617 178.509 271.562C178.568 271.503 178.636 271.474 178.714 271.474C178.764 271.474 178.839 271.501 178.939 271.556L185.14 275.015ZM200.479 271.576V271.385C200.479 271.248 200.505 271.15 200.555 271.091C200.609 271.032 200.68 271.002 200.767 271.002C200.853 271.002 200.922 271.032 200.972 271.091C201.026 271.15 201.054 271.248 201.054 271.385V272.848C201.054 272.984 201.026 273.082 200.972 273.142C200.922 273.201 200.853 273.23 200.767 273.23C200.685 273.23 200.616 273.203 200.562 273.148C200.511 273.094 200.484 273.005 200.479 272.882C200.457 272.499 200.258 272.155 199.885 271.85C199.516 271.544 199.03 271.392 198.429 271.392C197.795 271.392 197.292 271.556 196.918 271.884C196.544 272.207 196.357 272.59 196.357 273.032C196.357 273.26 196.41 273.467 196.515 273.654C196.619 273.841 196.758 273.994 196.932 274.112C197.105 274.226 197.301 274.32 197.52 274.393C197.738 274.461 198.08 274.534 198.545 274.611C199.324 274.739 199.862 274.869 200.158 275.001C200.555 275.179 200.853 275.425 201.054 275.739C201.259 276.054 201.361 276.425 201.361 276.854C201.361 277.51 201.099 278.07 200.575 278.535C200.051 278.995 199.345 279.226 198.456 279.226C197.458 279.226 196.66 278.913 196.063 278.289V278.617C196.063 278.754 196.036 278.852 195.981 278.911C195.931 278.97 195.863 279 195.776 279C195.694 279 195.626 278.97 195.571 278.911C195.517 278.852 195.489 278.754 195.489 278.617V277.031C195.489 276.89 195.514 276.79 195.564 276.73C195.619 276.671 195.69 276.642 195.776 276.642C195.858 276.642 195.924 276.669 195.975 276.724C196.029 276.778 196.059 276.867 196.063 276.99C196.086 277.41 196.31 277.792 196.733 278.139C197.162 278.48 197.736 278.651 198.456 278.651C199.176 278.651 199.743 278.471 200.158 278.111C200.577 277.751 200.787 277.325 200.787 276.833C200.787 276.532 200.707 276.266 200.548 276.033C200.388 275.796 200.151 275.609 199.837 275.473C199.618 275.377 199.162 275.27 198.47 275.151C197.517 274.992 196.831 274.748 196.412 274.42C195.993 274.092 195.783 273.625 195.783 273.019C195.783 272.417 196.022 271.9 196.501 271.467C196.984 271.034 197.62 270.817 198.408 270.817C199.21 270.817 199.901 271.07 200.479 271.576ZM209.94 276.177H204.089C204.189 276.92 204.499 277.519 205.019 277.975C205.543 278.426 206.19 278.651 206.96 278.651C207.388 278.651 207.837 278.581 208.307 278.439C208.776 278.298 209.159 278.111 209.455 277.879C209.542 277.811 209.617 277.776 209.681 277.776C209.754 277.776 209.817 277.806 209.872 277.865C209.927 277.92 209.954 277.986 209.954 278.063C209.954 278.141 209.918 278.216 209.845 278.289C209.626 278.517 209.236 278.731 208.676 278.932C208.12 279.128 207.548 279.226 206.96 279.226C205.976 279.226 205.153 278.904 204.492 278.262C203.836 277.615 203.508 276.833 203.508 275.917C203.508 275.083 203.815 274.368 204.431 273.771C205.05 273.174 205.816 272.875 206.728 272.875C207.666 272.875 208.439 273.183 209.045 273.798C209.651 274.409 209.95 275.201 209.94 276.177ZM209.359 275.596C209.245 274.962 208.945 274.447 208.457 274.051C207.974 273.654 207.397 273.456 206.728 273.456C206.058 273.456 205.481 273.652 204.998 274.044C204.515 274.436 204.214 274.953 204.096 275.596H209.359ZM217.221 279L216.51 279.007L215.245 275.315L213.987 279.007L213.276 279L212.087 273.661H211.807C211.67 273.661 211.572 273.634 211.513 273.579C211.453 273.524 211.424 273.454 211.424 273.367C211.424 273.285 211.453 273.217 211.513 273.162C211.572 273.107 211.67 273.08 211.807 273.08H213.386C213.522 273.08 213.62 273.107 213.68 273.162C213.739 273.217 213.769 273.287 213.769 273.374C213.769 273.456 213.739 273.524 213.68 273.579C213.62 273.634 213.522 273.661 213.386 273.661H212.654L213.673 278.214L214.896 274.577H215.58L216.838 278.214L217.815 273.661H217.091C216.954 273.661 216.854 273.634 216.79 273.579C216.731 273.524 216.701 273.454 216.701 273.367C216.701 273.285 216.731 273.217 216.79 273.162C216.849 273.107 216.95 273.08 217.091 273.08H218.663C218.804 273.08 218.905 273.107 218.964 273.162C219.023 273.217 219.053 273.287 219.053 273.374C219.053 273.456 219.023 273.524 218.964 273.579C218.905 273.634 218.804 273.661 218.663 273.661H218.39L217.221 279ZM223.934 270.134V271.617H223.086V270.134H223.934ZM223.954 273.08V278.426H226.21C226.351 278.426 226.451 278.453 226.511 278.508C226.57 278.558 226.6 278.626 226.6 278.713C226.6 278.795 226.57 278.863 226.511 278.918C226.451 278.973 226.351 279 226.21 279H221.124C220.987 279 220.889 278.973 220.83 278.918C220.771 278.863 220.741 278.795 220.741 278.713C220.741 278.626 220.771 278.558 220.83 278.508C220.889 278.453 220.987 278.426 221.124 278.426H223.38V273.661H221.705C221.568 273.661 221.468 273.634 221.404 273.579C221.345 273.524 221.315 273.456 221.315 273.374C221.315 273.287 221.345 273.217 221.404 273.162C221.464 273.107 221.564 273.08 221.705 273.08H223.954ZM230.202 273.08V273.948C230.603 273.543 230.965 273.262 231.289 273.107C231.613 272.952 231.977 272.875 232.383 272.875C232.82 272.875 233.219 272.968 233.579 273.155C233.834 273.292 234.064 273.52 234.27 273.839C234.479 274.153 234.584 274.477 234.584 274.81V278.426H235.069C235.206 278.426 235.304 278.453 235.363 278.508C235.423 278.558 235.452 278.626 235.452 278.713C235.452 278.795 235.423 278.863 235.363 278.918C235.304 278.973 235.206 279 235.069 279H233.531C233.39 279 233.29 278.973 233.23 278.918C233.171 278.863 233.142 278.795 233.142 278.713C233.142 278.626 233.171 278.558 233.23 278.508C233.29 278.453 233.39 278.426 233.531 278.426H234.01V274.905C234.01 274.5 233.862 274.158 233.565 273.88C233.269 273.597 232.873 273.456 232.376 273.456C231.998 273.456 231.67 273.534 231.392 273.688C231.114 273.839 230.717 274.217 230.202 274.823V278.426H230.852C230.988 278.426 231.086 278.453 231.146 278.508C231.205 278.558 231.234 278.626 231.234 278.713C231.234 278.795 231.205 278.863 231.146 278.918C231.086 278.973 230.988 279 230.852 279H228.979C228.842 279 228.744 278.973 228.685 278.918C228.625 278.863 228.596 278.795 228.596 278.713C228.596 278.626 228.625 278.558 228.685 278.508C228.744 278.453 228.842 278.426 228.979 278.426H229.628V273.661H229.143C229.006 273.661 228.908 273.634 228.849 273.579C228.789 273.524 228.76 273.454 228.76 273.367C228.76 273.285 228.789 273.217 228.849 273.162C228.908 273.107 229.006 273.08 229.143 273.08H230.202ZM242.397 274.133V273.08H243.744C243.881 273.08 243.979 273.107 244.038 273.162C244.097 273.217 244.127 273.287 244.127 273.374C244.127 273.456 244.097 273.524 244.038 273.579C243.979 273.634 243.881 273.661 243.744 273.661H242.972V279.396C242.972 279.779 242.89 280.121 242.726 280.422C242.616 280.622 242.434 280.83 242.179 281.044C241.924 281.258 241.691 281.411 241.481 281.502C241.272 281.593 240.992 281.639 240.641 281.639H239.014C238.877 281.639 238.779 281.611 238.72 281.557C238.66 281.507 238.631 281.438 238.631 281.352C238.631 281.265 238.66 281.194 238.72 281.14C238.779 281.085 238.877 281.058 239.014 281.058L240.661 281.064C240.998 281.064 241.301 280.978 241.57 280.805C241.844 280.632 242.069 280.379 242.247 280.046C242.347 279.854 242.397 279.611 242.397 279.314V277.592C241.782 278.435 240.989 278.856 240.019 278.856C239.23 278.856 238.549 278.565 237.975 277.981C237.405 277.394 237.12 276.687 237.12 275.862C237.12 275.037 237.405 274.333 237.975 273.75C238.549 273.167 239.23 272.875 240.019 272.875C240.989 272.875 241.782 273.294 242.397 274.133ZM242.397 275.862C242.397 275.188 242.165 274.618 241.7 274.153C241.24 273.688 240.688 273.456 240.046 273.456C239.403 273.456 238.852 273.691 238.392 274.16C237.931 274.625 237.701 275.192 237.701 275.862C237.701 276.537 237.931 277.109 238.392 277.578C238.852 278.043 239.403 278.275 240.046 278.275C240.688 278.275 241.24 278.043 241.7 277.578C242.165 277.109 242.397 276.537 242.397 275.862ZM256.104 273.08H259.221C259.357 273.08 259.455 273.107 259.515 273.162C259.574 273.217 259.604 273.287 259.604 273.374C259.604 273.456 259.574 273.524 259.515 273.579C259.455 273.634 259.357 273.661 259.221 273.661H256.104V277.482C256.104 277.815 256.236 278.093 256.5 278.316C256.769 278.54 257.161 278.651 257.676 278.651C258.063 278.651 258.482 278.594 258.934 278.48C259.385 278.362 259.736 278.23 259.986 278.084C260.077 278.025 260.153 277.995 260.212 277.995C260.285 277.995 260.349 278.025 260.403 278.084C260.458 278.139 260.485 278.205 260.485 278.282C260.485 278.351 260.456 278.414 260.396 278.474C260.251 278.624 259.895 278.788 259.33 278.966C258.77 279.139 258.232 279.226 257.717 279.226C257.047 279.226 256.514 279.068 256.117 278.754C255.721 278.439 255.522 278.016 255.522 277.482V273.661H254.463C254.326 273.661 254.228 273.634 254.169 273.579C254.11 273.524 254.08 273.454 254.08 273.367C254.08 273.285 254.11 273.217 254.169 273.162C254.228 273.107 254.326 273.08 254.463 273.08H255.522V271.385C255.522 271.248 255.55 271.15 255.604 271.091C255.659 271.032 255.728 271.002 255.81 271.002C255.896 271.002 255.967 271.032 256.021 271.091C256.076 271.15 256.104 271.248 256.104 271.385V273.08ZM263.801 270.421V273.955C264.165 273.559 264.514 273.281 264.847 273.121C265.184 272.957 265.56 272.875 265.975 272.875C266.421 272.875 266.799 272.955 267.109 273.114C267.424 273.269 267.686 273.511 267.896 273.839C268.105 274.162 268.21 274.504 268.21 274.864V278.426H268.853C268.994 278.426 269.092 278.453 269.146 278.508C269.206 278.558 269.235 278.626 269.235 278.713C269.235 278.795 269.206 278.863 269.146 278.918C269.092 278.973 268.994 279 268.853 279H266.986C266.845 279 266.745 278.973 266.686 278.918C266.626 278.863 266.597 278.795 266.597 278.713C266.597 278.626 266.626 278.558 266.686 278.508C266.745 278.453 266.845 278.426 266.986 278.426H267.629V274.905C267.629 274.491 267.479 274.144 267.178 273.866C266.882 273.588 266.467 273.449 265.934 273.449C265.514 273.449 265.157 273.552 264.86 273.757C264.646 273.903 264.293 274.247 263.801 274.789V278.426H264.45C264.587 278.426 264.685 278.453 264.744 278.508C264.803 278.558 264.833 278.626 264.833 278.713C264.833 278.795 264.803 278.863 264.744 278.918C264.685 278.973 264.587 279 264.45 279H262.577C262.44 279 262.342 278.973 262.283 278.918C262.224 278.863 262.194 278.795 262.194 278.713C262.194 278.626 262.224 278.558 262.283 278.508C262.342 278.453 262.44 278.426 262.577 278.426H263.227V271.002H262.454C262.317 271.002 262.219 270.975 262.16 270.92C262.101 270.865 262.071 270.795 262.071 270.708C262.071 270.626 262.101 270.558 262.16 270.503C262.219 270.448 262.317 270.421 262.454 270.421H263.801ZM273.412 273.08V274.529C274.16 273.855 274.718 273.422 275.087 273.23C275.461 273.035 275.805 272.937 276.119 272.937C276.461 272.937 276.778 273.053 277.069 273.285C277.366 273.513 277.514 273.686 277.514 273.805C277.514 273.891 277.484 273.964 277.425 274.023C277.37 274.078 277.299 274.105 277.213 274.105C277.167 274.105 277.129 274.099 277.097 274.085C277.065 274.067 277.006 274.014 276.919 273.928C276.759 273.768 276.62 273.659 276.502 273.6C276.383 273.54 276.267 273.511 276.153 273.511C275.903 273.511 275.6 273.611 275.244 273.812C274.893 274.012 274.283 274.502 273.412 275.281V278.426H275.955C276.096 278.426 276.197 278.453 276.256 278.508C276.315 278.558 276.345 278.626 276.345 278.713C276.345 278.795 276.315 278.863 276.256 278.918C276.197 278.973 276.096 279 275.955 279H271.45C271.313 279 271.215 278.975 271.156 278.925C271.097 278.87 271.067 278.802 271.067 278.72C271.067 278.642 271.095 278.578 271.149 278.528C271.209 278.474 271.309 278.446 271.45 278.446H272.838V273.661H271.778C271.642 273.661 271.544 273.634 271.484 273.579C271.425 273.524 271.396 273.454 271.396 273.367C271.396 273.285 271.423 273.217 271.478 273.162C271.537 273.107 271.637 273.08 271.778 273.08H273.412ZM285.614 276.177H279.763C279.863 276.92 280.173 277.519 280.692 277.975C281.216 278.426 281.864 278.651 282.634 278.651C283.062 278.651 283.511 278.581 283.98 278.439C284.45 278.298 284.833 278.111 285.129 277.879C285.215 277.811 285.291 277.776 285.354 277.776C285.427 277.776 285.491 277.806 285.546 277.865C285.601 277.92 285.628 277.986 285.628 278.063C285.628 278.141 285.591 278.216 285.519 278.289C285.3 278.517 284.91 278.731 284.35 278.932C283.794 279.128 283.222 279.226 282.634 279.226C281.649 279.226 280.827 278.904 280.166 278.262C279.51 277.615 279.182 276.833 279.182 275.917C279.182 275.083 279.489 274.368 280.104 273.771C280.724 273.174 281.49 272.875 282.401 272.875C283.34 272.875 284.113 273.183 284.719 273.798C285.325 274.409 285.623 275.201 285.614 276.177ZM285.033 275.596C284.919 274.962 284.618 274.447 284.131 274.051C283.648 273.654 283.071 273.456 282.401 273.456C281.731 273.456 281.155 273.652 280.672 274.044C280.189 274.436 279.888 274.953 279.77 275.596H285.033ZM292.566 279V278.173C291.732 278.875 290.841 279.226 289.894 279.226C289.205 279.226 288.668 279.052 288.28 278.706C287.893 278.355 287.699 277.927 287.699 277.421C287.699 276.865 287.954 276.38 288.465 275.965C288.975 275.55 289.72 275.343 290.7 275.343C290.965 275.343 291.252 275.361 291.562 275.397C291.871 275.429 292.206 275.482 292.566 275.555V274.625C292.566 274.311 292.421 274.037 292.129 273.805C291.837 273.572 291.4 273.456 290.816 273.456C290.37 273.456 289.743 273.586 288.937 273.846C288.791 273.891 288.697 273.914 288.656 273.914C288.583 273.914 288.52 273.887 288.465 273.832C288.415 273.777 288.39 273.709 288.39 273.627C288.39 273.549 288.412 273.488 288.458 273.442C288.522 273.374 288.779 273.281 289.23 273.162C289.941 272.971 290.479 272.875 290.844 272.875C291.568 272.875 292.133 273.055 292.539 273.415C292.945 273.771 293.147 274.174 293.147 274.625V278.426H293.913C294.054 278.426 294.155 278.453 294.214 278.508C294.273 278.558 294.303 278.626 294.303 278.713C294.303 278.795 294.273 278.863 294.214 278.918C294.155 278.973 294.054 279 293.913 279H292.566ZM292.566 276.143C292.298 276.065 292.013 276.008 291.712 275.972C291.411 275.935 291.094 275.917 290.762 275.917C289.928 275.917 289.276 276.097 288.807 276.457C288.451 276.726 288.273 277.047 288.273 277.421C288.273 277.767 288.408 278.059 288.677 278.296C288.95 278.533 289.347 278.651 289.866 278.651C290.363 278.651 290.823 278.553 291.247 278.357C291.675 278.157 292.115 277.84 292.566 277.407V276.143ZM302.137 270.421V278.426H302.902C303.044 278.426 303.144 278.453 303.203 278.508C303.262 278.558 303.292 278.626 303.292 278.713C303.292 278.795 303.262 278.863 303.203 278.918C303.144 278.973 303.044 279 302.902 279H301.556V277.858C300.89 278.77 300.045 279.226 299.02 279.226C298.5 279.226 298.001 279.089 297.522 278.815C297.049 278.537 296.673 278.143 296.395 277.633C296.121 277.122 295.984 276.596 295.984 276.054C295.984 275.507 296.121 274.98 296.395 274.475C296.673 273.964 297.049 273.57 297.522 273.292C298.001 273.014 298.502 272.875 299.026 272.875C300.029 272.875 300.872 273.331 301.556 274.242V271.002H300.79C300.649 271.002 300.549 270.975 300.489 270.92C300.43 270.865 300.4 270.795 300.4 270.708C300.4 270.626 300.43 270.558 300.489 270.503C300.549 270.448 300.649 270.421 300.79 270.421H302.137ZM301.556 276.054C301.556 275.325 301.31 274.709 300.817 274.208C300.325 273.707 299.74 273.456 299.061 273.456C298.377 273.456 297.789 273.707 297.297 274.208C296.805 274.709 296.559 275.325 296.559 276.054C296.559 276.778 296.805 277.394 297.297 277.899C297.789 278.401 298.377 278.651 299.061 278.651C299.74 278.651 300.325 278.401 300.817 277.899C301.31 277.394 301.556 276.778 301.556 276.054Z" fill="black"/>
<path d="M170.34 305.599V300.116H170.121C169.784 300.116 169.542 300.052 169.396 299.925C169.255 299.793 169.185 299.622 169.185 299.412C169.185 299.202 169.255 299.034 169.396 298.906C169.542 298.774 169.784 298.708 170.121 298.708H173.635C174.473 298.708 175.148 298.943 175.658 299.412C176.169 299.877 176.424 300.431 176.424 301.073C176.424 301.379 176.365 301.666 176.246 301.935C176.128 302.203 175.948 302.452 175.706 302.68C176.148 302.944 176.479 303.254 176.697 303.609C176.921 303.96 177.032 304.359 177.032 304.806C177.032 305.161 176.952 305.492 176.793 305.797C176.674 306.029 176.529 306.214 176.355 306.351C176.123 306.542 175.838 306.699 175.501 306.822C175.164 306.941 174.742 307 174.236 307H170.121C169.784 307 169.542 306.936 169.396 306.809C169.255 306.676 169.185 306.506 169.185 306.296C169.185 306.091 169.257 305.924 169.403 305.797C169.549 305.665 169.788 305.599 170.121 305.599H170.34ZM171.741 302.153H173.279C173.831 302.153 174.289 302.014 174.653 301.736C174.899 301.549 175.022 301.317 175.022 301.039C175.022 300.793 174.906 300.579 174.674 300.396C174.441 300.21 174.072 300.116 173.566 300.116H171.741V302.153ZM171.741 305.599H174.161C174.731 305.599 175.132 305.514 175.364 305.346C175.542 305.218 175.631 305.036 175.631 304.799C175.631 304.516 175.455 304.238 175.104 303.965C174.754 303.691 174.25 303.555 173.594 303.555H171.741V305.599ZM182.31 298.134V305.599H183.991C184.328 305.599 184.568 305.665 184.709 305.797C184.855 305.924 184.928 306.093 184.928 306.303C184.928 306.508 184.855 306.676 184.709 306.809C184.568 306.936 184.328 307 183.991 307H179.227C178.889 307 178.648 306.936 178.502 306.809C178.361 306.676 178.29 306.506 178.29 306.296C178.29 306.091 178.361 305.924 178.502 305.797C178.648 305.665 178.889 305.599 179.227 305.599H180.908V299.535H179.78C179.448 299.535 179.208 299.471 179.062 299.344C178.917 299.212 178.844 299.041 178.844 298.831C178.844 298.626 178.914 298.46 179.056 298.332C179.201 298.2 179.443 298.134 179.78 298.134H182.31ZM191.278 307V306.672C190.927 306.859 190.54 306.998 190.116 307.089C189.692 307.185 189.307 307.232 188.961 307.232C188.209 307.232 187.598 307.034 187.129 306.638C186.66 306.237 186.425 305.795 186.425 305.312C186.425 304.724 186.723 304.179 187.32 303.678C187.922 303.172 188.751 302.919 189.809 302.919C190.232 302.919 190.722 302.965 191.278 303.056V302.721C191.278 302.511 191.187 302.34 191.005 302.208C190.827 302.076 190.485 302.01 189.979 302.01C189.565 302.01 189.027 302.092 188.366 302.256C188.12 302.315 187.929 302.345 187.792 302.345C187.605 302.345 187.446 302.279 187.313 302.146C187.186 302.01 187.122 301.837 187.122 301.627C187.122 301.508 187.145 301.406 187.19 301.319C187.236 301.233 187.3 301.164 187.382 301.114C187.464 301.06 187.635 300.996 187.895 300.923C188.241 300.827 188.594 300.752 188.954 300.697C189.314 300.638 189.64 300.608 189.932 300.608C190.802 300.608 191.477 300.798 191.955 301.176C192.438 301.549 192.68 302.062 192.68 302.714V305.599H192.919C193.256 305.599 193.495 305.665 193.637 305.797C193.783 305.924 193.855 306.093 193.855 306.303C193.855 306.508 193.783 306.676 193.637 306.809C193.495 306.936 193.256 307 192.919 307H191.278ZM191.278 304.491C190.718 304.382 190.201 304.327 189.727 304.327C189.157 304.327 188.667 304.466 188.257 304.744C188.002 304.922 187.874 305.102 187.874 305.284C187.874 305.416 187.936 305.523 188.059 305.605C188.286 305.756 188.599 305.831 188.995 305.831C189.332 305.831 189.713 305.765 190.137 305.633C190.565 305.501 190.946 305.321 191.278 305.093V304.491ZM197.007 300.793V301.265C197.262 301.046 197.542 300.882 197.848 300.772C198.158 300.663 198.493 300.608 198.853 300.608C199.682 300.608 200.338 300.866 200.821 301.381C201.204 301.791 201.396 302.329 201.396 302.994V305.599C201.692 305.599 201.91 305.665 202.052 305.797C202.193 305.924 202.264 306.093 202.264 306.303C202.264 306.508 202.191 306.676 202.045 306.809C201.904 306.936 201.664 307 201.327 307H200.062C199.725 307 199.484 306.936 199.338 306.809C199.197 306.676 199.126 306.506 199.126 306.296C199.126 306.091 199.197 305.924 199.338 305.797C199.479 305.665 199.698 305.599 199.994 305.599V302.953C199.994 302.648 199.912 302.424 199.748 302.283C199.534 302.101 199.213 302.01 198.784 302.01C198.461 302.01 198.176 302.074 197.93 302.201C197.688 302.324 197.381 302.589 197.007 302.994V305.599C197.367 305.599 197.599 305.633 197.704 305.701C197.927 305.838 198.039 306.038 198.039 306.303C198.039 306.508 197.966 306.676 197.82 306.809C197.679 306.936 197.44 307 197.103 307H195.51C195.173 307 194.931 306.936 194.785 306.809C194.644 306.676 194.573 306.506 194.573 306.296C194.573 306.041 194.683 305.842 194.901 305.701C195.011 305.633 195.245 305.599 195.605 305.599V302.194C195.309 302.194 195.09 302.128 194.949 301.996C194.808 301.864 194.737 301.695 194.737 301.49C194.737 301.285 194.808 301.119 194.949 300.991C195.095 300.859 195.337 300.793 195.674 300.793H197.007ZM205.682 304.669V307H204.041C203.704 307 203.462 306.936 203.316 306.809C203.175 306.676 203.104 306.506 203.104 306.296C203.104 306.091 203.177 305.924 203.323 305.797C203.469 305.665 203.708 305.599 204.041 305.599H204.28V299.535H204.041C203.704 299.535 203.462 299.471 203.316 299.344C203.175 299.212 203.104 299.041 203.104 298.831C203.104 298.626 203.175 298.46 203.316 298.332C203.462 298.2 203.704 298.134 204.041 298.134H205.682V302.857L206.775 301.976C206.661 301.78 206.604 301.62 206.604 301.497C206.604 301.287 206.675 301.119 206.816 300.991C206.958 300.859 207.197 300.793 207.534 300.793H209.134C209.471 300.793 209.71 300.859 209.852 300.991C209.997 301.119 210.07 301.287 210.07 301.497C210.07 301.702 209.997 301.871 209.852 302.003C209.71 302.131 209.471 302.194 209.134 302.194H208.744L207.042 303.575L209.332 305.599H209.742C210.079 305.599 210.319 305.665 210.46 305.797C210.606 305.924 210.679 306.093 210.679 306.303C210.679 306.508 210.606 306.676 210.46 306.809C210.319 306.936 210.079 307 209.742 307H208.129C207.792 307 207.55 306.936 207.404 306.809C207.263 306.676 207.192 306.506 207.192 306.296C207.192 306.118 207.27 305.943 207.425 305.77L205.941 304.457L205.682 304.669ZM176.335 318.249H170.073C169.937 318.249 169.839 318.222 169.779 318.167C169.72 318.112 169.69 318.042 169.69 317.955C169.69 317.873 169.72 317.805 169.779 317.75C169.839 317.695 169.937 317.668 170.073 317.668H176.335C176.472 317.668 176.57 317.695 176.629 317.75C176.688 317.805 176.718 317.875 176.718 317.962C176.718 318.044 176.688 318.112 176.629 318.167C176.57 318.222 176.472 318.249 176.335 318.249ZM176.335 320.307H170.073C169.937 320.307 169.839 320.282 169.779 320.231C169.72 320.177 169.69 320.106 169.69 320.02C169.69 319.933 169.72 319.865 169.779 319.814C169.839 319.76 169.937 319.732 170.073 319.732H176.335C176.472 319.732 176.57 319.76 176.629 319.814C176.688 319.865 176.718 319.933 176.718 320.02C176.718 320.106 176.688 320.177 176.629 320.231C176.57 320.282 176.472 320.307 176.335 320.307ZM185.14 319.015L178.933 322.474C178.832 322.528 178.757 322.556 178.707 322.556C178.63 322.556 178.561 322.528 178.502 322.474C178.447 322.414 178.42 322.346 178.42 322.269C178.42 322.155 178.497 322.054 178.652 321.968L183.971 319.015L178.659 316.062C178.504 315.975 178.427 315.875 178.427 315.761C178.427 315.683 178.454 315.617 178.509 315.562C178.568 315.503 178.636 315.474 178.714 315.474C178.764 315.474 178.839 315.501 178.939 315.556L185.14 319.015ZM198.709 315.576V322.426H200.199C200.336 322.426 200.434 322.453 200.493 322.508C200.552 322.558 200.582 322.626 200.582 322.713C200.582 322.795 200.552 322.863 200.493 322.918C200.434 322.973 200.336 323 200.199 323H196.638C196.501 323 196.403 322.973 196.344 322.918C196.285 322.863 196.255 322.795 196.255 322.713C196.255 322.626 196.285 322.558 196.344 322.508C196.403 322.453 196.501 322.426 196.638 322.426H198.128V315.576H195.776V317.565C195.776 317.707 195.749 317.807 195.694 317.866C195.644 317.925 195.576 317.955 195.489 317.955C195.407 317.955 195.339 317.925 195.284 317.866C195.229 317.807 195.202 317.707 195.202 317.565V315.002H201.635V317.565C201.635 317.707 201.607 317.807 201.553 317.866C201.503 317.925 201.434 317.955 201.348 317.955C201.261 317.955 201.19 317.925 201.136 317.866C201.086 317.807 201.061 317.707 201.061 317.565V315.576H198.709ZM204.943 314.421V317.955C205.308 317.559 205.657 317.281 205.989 317.121C206.326 316.957 206.702 316.875 207.117 316.875C207.564 316.875 207.942 316.955 208.252 317.114C208.566 317.269 208.828 317.511 209.038 317.839C209.248 318.162 209.353 318.504 209.353 318.864V322.426H209.995C210.136 322.426 210.234 322.453 210.289 322.508C210.348 322.558 210.378 322.626 210.378 322.713C210.378 322.795 210.348 322.863 210.289 322.918C210.234 322.973 210.136 323 209.995 323H208.129C207.988 323 207.887 322.973 207.828 322.918C207.769 322.863 207.739 322.795 207.739 322.713C207.739 322.626 207.769 322.558 207.828 322.508C207.887 322.453 207.988 322.426 208.129 322.426H208.771V318.905C208.771 318.491 208.621 318.144 208.32 317.866C208.024 317.588 207.609 317.449 207.076 317.449C206.657 317.449 206.299 317.552 206.003 317.757C205.789 317.903 205.436 318.247 204.943 318.789V322.426H205.593C205.729 322.426 205.827 322.453 205.887 322.508C205.946 322.558 205.976 322.626 205.976 322.713C205.976 322.795 205.946 322.863 205.887 322.918C205.827 322.973 205.729 323 205.593 323H203.72C203.583 323 203.485 322.973 203.426 322.918C203.367 322.863 203.337 322.795 203.337 322.713C203.337 322.626 203.367 322.558 203.426 322.508C203.485 322.453 203.583 322.426 203.72 322.426H204.369V315.002H203.597C203.46 315.002 203.362 314.975 203.303 314.92C203.243 314.865 203.214 314.795 203.214 314.708C203.214 314.626 203.243 314.558 203.303 314.503C203.362 314.448 203.46 314.421 203.597 314.421H204.943ZM215.525 314.134V315.617H214.678V314.134H215.525ZM215.546 317.08V322.426H217.802C217.943 322.426 218.043 322.453 218.103 322.508C218.162 322.558 218.191 322.626 218.191 322.713C218.191 322.795 218.162 322.863 218.103 322.918C218.043 322.973 217.943 323 217.802 323H212.716C212.579 323 212.481 322.973 212.422 322.918C212.363 322.863 212.333 322.795 212.333 322.713C212.333 322.626 212.363 322.558 212.422 322.508C212.481 322.453 212.579 322.426 212.716 322.426H214.972V317.661H213.297C213.16 317.661 213.06 317.634 212.996 317.579C212.937 317.524 212.907 317.456 212.907 317.374C212.907 317.287 212.937 317.217 212.996 317.162C213.055 317.107 213.156 317.08 213.297 317.08H215.546ZM226.046 317.661V317.47C226.046 317.328 226.073 317.228 226.128 317.169C226.183 317.11 226.251 317.08 226.333 317.08C226.42 317.08 226.49 317.11 226.545 317.169C226.6 317.228 226.627 317.328 226.627 317.47V318.769C226.622 318.91 226.593 319.01 226.538 319.069C226.488 319.129 226.42 319.158 226.333 319.158C226.256 319.158 226.189 319.133 226.135 319.083C226.085 319.028 226.055 318.939 226.046 318.816C226.019 318.493 225.804 318.185 225.403 317.894C225.007 317.602 224.471 317.456 223.797 317.456C222.945 317.456 222.298 317.723 221.855 318.256C221.413 318.789 221.192 319.4 221.192 320.088C221.192 320.831 221.436 321.444 221.924 321.927C222.411 322.41 223.043 322.651 223.817 322.651C224.264 322.651 224.717 322.569 225.178 322.405C225.643 322.241 226.062 321.977 226.436 321.612C226.531 321.521 226.616 321.476 226.688 321.476C226.766 321.476 226.83 321.503 226.88 321.558C226.935 321.608 226.962 321.672 226.962 321.749C226.962 321.945 226.732 322.193 226.271 322.494C225.529 322.982 224.701 323.226 223.79 323.226C222.865 323.226 222.104 322.932 221.507 322.344C220.914 321.751 220.618 321.002 220.618 320.095C220.618 319.17 220.921 318.402 221.527 317.791C222.138 317.18 222.906 316.875 223.831 316.875C224.711 316.875 225.449 317.137 226.046 317.661ZM230.893 320.443V323H229.546C229.409 323 229.311 322.973 229.252 322.918C229.193 322.863 229.163 322.795 229.163 322.713C229.163 322.626 229.193 322.558 229.252 322.508C229.311 322.453 229.409 322.426 229.546 322.426H230.318V315.002H229.546C229.409 315.002 229.311 314.975 229.252 314.92C229.193 314.865 229.163 314.795 229.163 314.708C229.163 314.626 229.193 314.558 229.252 314.503C229.311 314.448 229.409 314.421 229.546 314.421H230.893V319.712L233.333 317.661H233.039C232.902 317.661 232.804 317.634 232.745 317.579C232.686 317.524 232.656 317.456 232.656 317.374C232.656 317.287 232.686 317.217 232.745 317.162C232.804 317.107 232.902 317.08 233.039 317.08H234.878C235.019 317.08 235.119 317.107 235.179 317.162C235.238 317.217 235.268 317.287 235.268 317.374C235.268 317.456 235.238 317.524 235.179 317.579C235.119 317.634 235.019 317.661 234.878 317.661H234.215L231.973 319.534L234.81 322.426H235.473C235.614 322.426 235.714 322.453 235.773 322.508C235.833 322.558 235.862 322.626 235.862 322.713C235.862 322.795 235.833 322.863 235.773 322.918C235.714 322.973 235.614 323 235.473 323H233.613C233.477 323 233.379 322.973 233.319 322.918C233.26 322.863 233.23 322.795 233.23 322.713C233.23 322.626 233.26 322.558 233.319 322.508C233.379 322.453 233.477 322.426 233.613 322.426H234.017L231.549 319.89L230.893 320.443ZM243.573 320.177H237.722C237.822 320.92 238.132 321.519 238.651 321.975C239.175 322.426 239.823 322.651 240.593 322.651C241.021 322.651 241.47 322.581 241.939 322.439C242.409 322.298 242.792 322.111 243.088 321.879C243.174 321.811 243.25 321.776 243.313 321.776C243.386 321.776 243.45 321.806 243.505 321.865C243.56 321.92 243.587 321.986 243.587 322.063C243.587 322.141 243.55 322.216 243.478 322.289C243.259 322.517 242.869 322.731 242.309 322.932C241.753 323.128 241.181 323.226 240.593 323.226C239.608 323.226 238.786 322.904 238.125 322.262C237.469 321.615 237.141 320.833 237.141 319.917C237.141 319.083 237.448 318.368 238.063 317.771C238.683 317.174 239.449 316.875 240.36 316.875C241.299 316.875 242.072 317.183 242.678 317.798C243.284 318.409 243.582 319.201 243.573 320.177ZM242.992 319.596C242.878 318.962 242.577 318.447 242.09 318.051C241.607 317.654 241.03 317.456 240.36 317.456C239.69 317.456 239.114 317.652 238.631 318.044C238.148 318.436 237.847 318.953 237.729 319.596H242.992ZM248.188 317.08V318.529C248.935 317.855 249.493 317.422 249.862 317.23C250.236 317.035 250.58 316.937 250.895 316.937C251.236 316.937 251.553 317.053 251.845 317.285C252.141 317.513 252.289 317.686 252.289 317.805C252.289 317.891 252.259 317.964 252.2 318.023C252.146 318.078 252.075 318.105 251.988 318.105C251.943 318.105 251.904 318.099 251.872 318.085C251.84 318.067 251.781 318.014 251.694 317.928C251.535 317.768 251.396 317.659 251.277 317.6C251.159 317.54 251.043 317.511 250.929 317.511C250.678 317.511 250.375 317.611 250.02 317.812C249.669 318.012 249.058 318.502 248.188 319.281V322.426H250.73C250.872 322.426 250.972 322.453 251.031 322.508C251.09 322.558 251.12 322.626 251.12 322.713C251.12 322.795 251.09 322.863 251.031 322.918C250.972 322.973 250.872 323 250.73 323H246.226C246.089 323 245.991 322.975 245.932 322.925C245.872 322.87 245.843 322.802 245.843 322.72C245.843 322.642 245.87 322.578 245.925 322.528C245.984 322.474 246.084 322.446 246.226 322.446H247.613V317.661H246.554C246.417 317.661 246.319 317.634 246.26 317.579C246.201 317.524 246.171 317.454 246.171 317.367C246.171 317.285 246.198 317.217 246.253 317.162C246.312 317.107 246.412 317.08 246.554 317.08H248.188ZM265.729 323L263.062 317.661H262.892C262.755 317.661 262.657 317.634 262.598 317.579C262.538 317.524 262.509 317.456 262.509 317.374C262.509 317.315 262.522 317.262 262.55 317.217C262.582 317.167 262.62 317.132 262.666 317.114C262.716 317.091 262.791 317.08 262.892 317.08H264.464C264.601 317.08 264.699 317.107 264.758 317.162C264.817 317.217 264.847 317.287 264.847 317.374C264.847 317.456 264.817 317.524 264.758 317.579C264.699 317.634 264.601 317.661 264.464 317.661H263.691L266.036 322.371L268.347 317.661H267.574C267.438 317.661 267.34 317.634 267.28 317.579C267.221 317.524 267.191 317.454 267.191 317.367C267.191 317.285 267.221 317.217 267.28 317.162C267.34 317.107 267.438 317.08 267.574 317.08H269.14C269.281 317.08 269.381 317.107 269.44 317.162C269.5 317.217 269.529 317.287 269.529 317.374C269.529 317.433 269.511 317.488 269.475 317.538C269.438 317.588 269.397 317.622 269.352 317.641C269.306 317.654 269.178 317.661 268.969 317.661L265.332 325.064H266.228C266.364 325.064 266.462 325.09 266.521 325.14C266.581 325.194 266.61 325.265 266.61 325.352C266.61 325.434 266.581 325.502 266.521 325.557C266.462 325.611 266.364 325.639 266.228 325.639H262.919C262.782 325.639 262.684 325.611 262.625 325.557C262.566 325.507 262.536 325.438 262.536 325.352C262.536 325.265 262.566 325.194 262.625 325.14C262.684 325.09 262.782 325.064 262.919 325.064H264.717L265.729 323ZM275.75 323V322.173C274.916 322.875 274.025 323.226 273.077 323.226C272.389 323.226 271.851 323.052 271.464 322.706C271.076 322.355 270.883 321.927 270.883 321.421C270.883 320.865 271.138 320.38 271.648 319.965C272.159 319.55 272.904 319.343 273.884 319.343C274.148 319.343 274.435 319.361 274.745 319.397C275.055 319.429 275.39 319.482 275.75 319.555V318.625C275.75 318.311 275.604 318.037 275.312 317.805C275.021 317.572 274.583 317.456 274 317.456C273.553 317.456 272.927 317.586 272.12 317.846C271.974 317.891 271.881 317.914 271.84 317.914C271.767 317.914 271.703 317.887 271.648 317.832C271.598 317.777 271.573 317.709 271.573 317.627C271.573 317.549 271.596 317.488 271.642 317.442C271.705 317.374 271.963 317.281 272.414 317.162C273.125 316.971 273.663 316.875 274.027 316.875C274.752 316.875 275.317 317.055 275.723 317.415C276.128 317.771 276.331 318.174 276.331 318.625V322.426H277.097C277.238 322.426 277.338 322.453 277.397 322.508C277.457 322.558 277.486 322.626 277.486 322.713C277.486 322.795 277.457 322.863 277.397 322.918C277.338 322.973 277.238 323 277.097 323H275.75ZM275.75 320.143C275.481 320.065 275.196 320.008 274.896 319.972C274.595 319.935 274.278 319.917 273.945 319.917C273.111 319.917 272.46 320.097 271.99 320.457C271.635 320.726 271.457 321.047 271.457 321.421C271.457 321.767 271.591 322.059 271.86 322.296C272.134 322.533 272.53 322.651 273.05 322.651C273.547 322.651 274.007 322.553 274.431 322.357C274.859 322.157 275.299 321.84 275.75 321.407V320.143ZM281.82 317.08V318.529C282.568 317.855 283.126 317.422 283.495 317.23C283.869 317.035 284.213 316.937 284.527 316.937C284.869 316.937 285.186 317.053 285.478 317.285C285.774 317.513 285.922 317.686 285.922 317.805C285.922 317.891 285.892 317.964 285.833 318.023C285.778 318.078 285.708 318.105 285.621 318.105C285.576 318.105 285.537 318.099 285.505 318.085C285.473 318.067 285.414 318.014 285.327 317.928C285.168 317.768 285.029 317.659 284.91 317.6C284.792 317.54 284.675 317.511 284.562 317.511C284.311 317.511 284.008 317.611 283.652 317.812C283.301 318.012 282.691 318.502 281.82 319.281V322.426H284.363C284.505 322.426 284.605 322.453 284.664 322.508C284.723 322.558 284.753 322.626 284.753 322.713C284.753 322.795 284.723 322.863 284.664 322.918C284.605 322.973 284.505 323 284.363 323H279.858C279.722 323 279.624 322.975 279.564 322.925C279.505 322.87 279.476 322.802 279.476 322.72C279.476 322.642 279.503 322.578 279.558 322.528C279.617 322.474 279.717 322.446 279.858 322.446H281.246V317.661H280.187C280.05 317.661 279.952 317.634 279.893 317.579C279.833 317.524 279.804 317.454 279.804 317.367C279.804 317.285 279.831 317.217 279.886 317.162C279.945 317.107 280.045 317.08 280.187 317.08H281.82ZM289.06 317.08V317.948C289.461 317.543 289.823 317.262 290.146 317.107C290.47 316.952 290.835 316.875 291.24 316.875C291.678 316.875 292.076 316.968 292.437 317.155C292.692 317.292 292.922 317.52 293.127 317.839C293.337 318.153 293.441 318.477 293.441 318.81V322.426H293.927C294.063 322.426 294.161 322.453 294.221 322.508C294.28 322.558 294.31 322.626 294.31 322.713C294.31 322.795 294.28 322.863 294.221 322.918C294.161 322.973 294.063 323 293.927 323H292.389C292.247 323 292.147 322.973 292.088 322.918C292.029 322.863 291.999 322.795 291.999 322.713C291.999 322.626 292.029 322.558 292.088 322.508C292.147 322.453 292.247 322.426 292.389 322.426H292.867V318.905C292.867 318.5 292.719 318.158 292.423 317.88C292.127 317.597 291.73 317.456 291.233 317.456C290.855 317.456 290.527 317.534 290.249 317.688C289.971 317.839 289.575 318.217 289.06 318.823V322.426H289.709C289.846 322.426 289.944 322.453 290.003 322.508C290.062 322.558 290.092 322.626 290.092 322.713C290.092 322.795 290.062 322.863 290.003 322.918C289.944 322.973 289.846 323 289.709 323H287.836C287.699 323 287.601 322.973 287.542 322.918C287.483 322.863 287.453 322.795 287.453 322.713C287.453 322.626 287.483 322.558 287.542 322.508C287.601 322.453 287.699 322.426 287.836 322.426H288.485V317.661H288C287.863 317.661 287.765 317.634 287.706 317.579C287.647 317.524 287.617 317.454 287.617 317.367C287.617 317.285 287.647 317.217 287.706 317.162C287.765 317.107 287.863 317.08 288 317.08H289.06Z" fill="black"/>
<path d="M20.7866 289.551L18.7866 289.551L18.7866 291.551L20.7866 291.551L20.7866 289.551ZM56.2008 290.965C56.9819 290.184 56.9819 288.918 56.2008 288.137L43.4729 275.409C42.6919 274.628 41.4255 274.628 40.6445 275.409C39.8634 276.19 39.8634 277.456 40.6445 278.237L51.9582 289.551L40.6445 300.864C39.8634 301.646 39.8634 302.912 40.6445 303.693C41.4255 304.474 42.6919 304.474 43.4729 303.693L56.2008 290.965ZM20.7866 241L18.7866 241L18.7866 289.551L20.7866 289.551L22.7866 289.551L22.7866 241L20.7866 241ZM20.7866 289.551L20.7866 291.551L54.7866 291.551L54.7866 289.551L54.7866 287.551L20.7866 287.551L20.7866 289.551Z" fill="black"/>
</svg>
